<svg width="156" height="83" viewBox="0 0 156 83" fill="none" xmlns="http://www.w3.org/2000/svg">
<g clip-path="url(#clip0_3941_27)">
<path d="M65.2767 17.9999H63.8043V14.5359H65.2767V17.9999Z" fill="#F5821F"/>
<path d="M65.2346 17.9577H63.8462V14.5779H65.2346V17.9577Z" fill="#F5821F"/>
<path d="M54.9606 14.672L53.9089 12.0976L52.8573 14.672H54.9606ZM53.1287 10H54.7343L58.1267 17.9945H56.3061L55.5824 16.2141H52.2355L51.5119 17.9945H49.7366L53.1287 10Z" fill="#4D4D4F"/>
<path d="M70.9601 10.0564H72.7009V17.9944H70.9601V10.0564Z" fill="#4D4D4F"/>
<path d="M74.6804 10.0566H76.4212V16.407H80.3679V17.9946H74.6804V10.0566Z" fill="#4D4D4F"/>
<path d="M81.7585 10.0564H83.4994V17.9944H81.7585V10.0564Z" fill="#4D4D4F"/>
<path d="M90.0241 14.672L88.972 12.0976L87.9208 14.672H90.0241ZM88.1922 10H89.7978L93.1901 17.9945H91.3697L90.6456 16.2141H87.2993L86.5752 17.9945H84.7999L88.1922 10Z" fill="#4D4D4F"/>
<path d="M95.2368 11.6665H92.8285V10.0564H99.3868V11.6665H96.9785V17.9944H95.2368V11.6665Z" fill="#4D4D4F"/>
<path d="M100.721 10.0566H106.691V11.6102H102.451V13.2204H106.182V14.7741H102.451V16.441H106.748V17.9946H100.721V10.0566Z" fill="#4D4D4F"/>
<path d="M61.5517 14.3956H58.7659V12.9077H61.5517V14.3956Z" fill="#F5821F"/>
<path d="M65.2766 12.22V12.7672H63.8042V12.22C63.8042 12.0344 63.7318 11.8637 63.6139 11.7354C63.5764 11.7004 63.5353 11.6696 63.491 11.6434C63.3846 11.5799 63.2609 11.5434 63.1296 11.5434H57.3662V10.0557H63.1296C63.2529 10.0557 63.3737 10.0663 63.491 10.0869C63.9344 10.1641 64.3299 10.3815 64.6315 10.6918C64.8618 10.9158 65.042 11.1922 65.1525 11.5013C65.2328 11.7259 65.2766 11.968 65.2766 12.22Z" fill="#F5821F"/>
<path d="M58.8079 14.3534H61.5096V12.9497H58.8079V14.3534Z" fill="#F5821F"/>
<path d="M65.2346 12.2202V12.7254H63.8462V12.2202C63.8462 11.9588 63.7026 11.7272 63.4911 11.6015C63.3846 11.5381 63.2609 11.5016 63.1296 11.5016H57.4083V10.0979H63.1296C63.253 10.0979 63.3738 10.1085 63.4911 10.1292C64.2435 10.2605 64.8579 10.7951 65.1105 11.5016C65.1909 11.7262 65.2346 11.9682 65.2346 12.2202Z" fill="#F5821F"/>
<path d="M69.6154 10.0557V11.5434H65.3146L65.3064 11.5014C65.2904 11.4395 65.2718 11.3786 65.2505 11.3189C65.1468 11.0297 64.9828 10.7693 64.7734 10.5535C64.7734 10.5534 64.7736 10.5535 64.7734 10.5535C64.5977 10.3823 64.3923 10.2413 64.1661 10.1397L63.99 10.0557H69.6154Z" fill="#4D4D4F"/>
<path d="M68.2158 12.9077V14.3956H63.1779V17.9999H61.7054V12.2201C61.7054 12.045 61.7266 11.8748 61.7664 11.7119L61.7819 11.6705L61.8084 11.6697H63.0596C63.1465 11.6697 63.2297 11.6856 63.3071 11.7149L63.3587 11.7469L63.349 11.757C63.2426 11.8825 63.1779 12.0445 63.1779 12.2201V12.9077H68.2158Z" fill="#4D4D4F"/>
<path d="M69.5739 10.0977V11.5015H65.3485C65.3324 11.4395 65.3138 11.3785 65.2926 11.319C65.0976 10.7743 64.688 10.332 64.1661 10.0977H69.5739Z" fill="#4D4D4F"/>
<path d="M68.1743 12.9498V14.3535H63.1359V17.9579H61.7474V12.22C61.7474 12.045 61.7685 11.8749 61.8084 11.7119H63.0596C63.1464 11.7119 63.2297 11.7278 63.3071 11.7571C63.2006 11.8826 63.1359 12.0446 63.1359 12.22V12.9498H68.1743Z" fill="#4D4D4F"/>
<path d="M166.043 22.2978L117.279 13.2568L104 84.8787L152.764 93.9196L166.043 22.2978Z" fill="#F6F6F6"/>
<path d="M131.778 67.9607L116.134 65.0602C115.824 65.0028 115.512 65.2967 115.433 65.7185C115.355 66.1403 115.542 66.5267 115.851 66.5841L131.496 69.4846C131.805 69.542 132.118 69.2481 132.196 68.8263C132.274 68.4045 132.088 68.0181 131.778 67.9607Z" fill="#E1D7DB"/>
<path d="M143.667 71.7417L148.276 72.5962C148.576 72.6518 148.88 72.3564 148.959 71.9346C149.037 71.5128 148.858 71.1279 148.559 71.0724L143.949 70.2178C143.65 70.1623 143.345 70.4576 143.267 70.8794C143.186 71.3148 143.367 71.6861 143.667 71.7417ZM134.12 69.9716L141.154 71.2759C141.454 71.3314 141.759 71.036 141.837 70.6143C141.915 70.1925 141.736 69.8075 141.437 69.752L134.402 68.4477C134.103 68.3922 133.798 68.6876 133.72 69.1093C133.639 69.5447 133.82 69.9161 134.12 69.9716Z" fill="#EBE7E9"/>
<path d="M133.696 74.6218L118.051 71.7213C117.742 71.664 117.429 71.9578 117.351 72.3796C117.273 72.8014 117.459 73.1878 117.769 73.2452L133.413 76.1457C133.723 76.2031 134.035 75.9092 134.114 75.4874C134.192 75.0656 134.005 74.6792 133.696 74.6218Z" fill="#E1D7DB"/>
<path d="M144.414 76.609L137.811 75.3847C137.529 75.3326 137.24 75.6307 137.161 76.0525C137.083 76.4742 137.247 76.8564 137.528 76.9086L144.131 78.1329C144.413 78.185 144.702 77.8869 144.781 77.4651C144.859 77.0433 144.695 76.6611 144.414 76.609Z" fill="#EBE7E9"/>
<path d="M147.984 74.1324L132.646 71.2886C132.342 71.2323 132.035 71.5241 131.958 71.9422C131.88 72.3602 132.062 72.7427 132.366 72.799L147.704 75.6428C148.008 75.699 148.315 75.4073 148.392 74.9892C148.47 74.5712 148.288 74.1886 147.984 74.1324ZM115.278 69.6169L119.947 70.4825C120.25 70.5388 120.558 70.247 120.635 69.829C120.713 69.4109 120.53 69.0284 120.227 68.9722L115.558 68.1065C115.254 68.0503 114.947 68.342 114.87 68.7601C114.792 69.1781 114.974 69.5606 115.278 69.6169Z" fill="#E1D7DB"/>
<path d="M129.458 72.2598C129.739 72.312 130.029 72.0138 130.107 71.5921C130.185 71.1703 130.022 70.7881 129.74 70.7359L123.137 69.5117C122.856 69.4595 122.566 69.7576 122.488 70.1794C122.41 70.6012 122.573 70.9834 122.854 71.0355L129.458 72.2598Z" fill="#EBE7E9"/>
<path d="M119.622 60.75L119.838 62.5952L119.824 62.5729L118.626 61.252L117.013 62.0713L117.876 60.4263L116.664 59.0831L118.41 59.4068L119.273 57.7617L119.489 59.607L121.235 59.9307L119.622 60.75Z" fill="#FFBF9F"/>
<path d="M127.248 62.1635L127.465 64.0089L127.442 63.985L126.25 62.6652L124.634 63.484L125.498 61.8391L124.283 60.4954L126.032 60.8197L126.897 59.1749L127.114 61.0204L128.855 61.343L127.248 62.1635Z" fill="#FFBF9F"/>
<path d="M134.867 63.5765L135.084 65.422L135.061 65.398L133.869 64.0783L132.253 64.8971L133.118 63.2522L131.902 61.9085L133.652 62.2328L134.516 60.588L134.725 62.4318L136.474 62.7561L134.867 63.5765Z" fill="#FFBF9F"/>
<path d="M140.954 64.7048L141.171 66.5502L141.157 66.5279L139.965 65.2082L138.349 66.027L139.213 64.3821L137.998 63.0384L139.747 63.3627L140.612 61.7178L140.82 63.5617L142.57 63.886L140.954 64.7048Z" fill="#FFBF9F"/>
<path d="M148.101 66.0299L148.499 67.9088L148.478 67.8854L146.824 66.4799L144.723 67.2089L145.768 65.5975L144.093 64.1685L146.426 64.6009L147.471 62.9895L147.856 64.8662L150.189 65.2986L148.101 66.0299Z" fill="#EBE7E9"/>
<path d="M152.541 49.7314C152.994 49.5342 153.35 49.1314 153.447 48.6077C153.601 47.7818 153.059 46.9939 152.233 46.8408C152.032 46.8034 151.833 46.8082 151.639 46.8451C151.798 45.76 151.072 44.7296 149.985 44.5279C149.038 44.3524 148.121 44.8595 147.735 45.7047C147.638 45.6659 147.541 45.6271 147.43 45.6065C146.665 45.4646 145.937 45.9651 145.795 46.7305C145.677 47.365 146.011 47.9791 146.566 48.2485C146.517 48.3958 146.469 48.5432 146.439 48.7043C146.15 50.2654 147.175 51.7577 148.737 52.0471C149.421 52.1741 150.091 52.0481 150.649 51.7349C150.797 51.8353 150.971 51.9092 151.162 51.9447C151.927 52.0866 152.656 51.5861 152.798 50.8207C152.862 50.416 152.756 50.0317 152.541 49.7314Z" fill="#EBE7E9"/>
<path d="M147.645 56.0224L148.632 56.2054L149.658 50.6762L151.093 50.0674L151.798 50.1981L151.812 50.1276L151.251 49.9507L151.893 49.1842L151.842 49.1227L150.951 49.8223L149.361 50.3087L148.484 49.6461L148.395 49.7337L148.978 50.6336L147.645 56.0224Z" fill="#E1D7DB"/>
<path d="M151.188 46.4072C151.238 46.6456 151 47.0286 150.822 47.0894C150.822 47.0894 151.095 47.3065 151.296 46.9481C151.498 46.5897 151.188 46.4072 151.188 46.4072ZM152.866 47.812C152.906 47.9862 152.731 48.2559 152.609 48.2958C152.609 48.2958 152.808 48.4577 152.951 48.1925C153.082 47.9355 152.866 47.812 152.866 47.812ZM152.942 48.6386C152.859 48.8005 152.526 48.9157 152.388 48.8694C152.388 48.8694 152.442 49.1399 152.736 49.0172C153.041 48.8863 152.942 48.6386 152.942 48.6386ZM152.147 48.3143C151.958 48.4355 151.547 48.3489 151.447 48.2157C151.447 48.2157 151.339 48.5186 151.713 48.5776C152.09 48.6265 152.147 48.3143 152.147 48.3143Z" fill="#E1D7DB"/>
<path d="M125.494 46.8838C125.81 46.7548 126.051 46.4661 126.116 46.1136C126.221 45.5496 125.843 45.0005 125.279 44.8959C125.138 44.8698 125.002 44.8757 124.871 44.9037C124.979 44.1528 124.485 43.4465 123.73 43.3065C123.075 43.1851 122.447 43.5375 122.184 44.1138C122.118 44.0806 122.047 44.0675 121.977 44.0544C121.453 43.9573 120.951 44.3019 120.854 44.8256C120.774 45.2587 120.997 45.6854 121.379 45.8709C121.341 45.9679 121.31 46.0768 121.291 46.1775C121.093 47.2451 121.799 48.2718 122.866 48.4697C123.33 48.5556 123.793 48.4748 124.177 48.2544C124.279 48.3253 124.406 48.3697 124.537 48.394C125.061 48.4911 125.562 48.1465 125.659 47.6228C125.728 47.3647 125.652 47.1006 125.494 46.8838Z" fill="#EBE7E9"/>
<path d="M122.138 51.22L122.812 51.3451L123.518 47.5381L124.501 47.1265L124.994 47.218L125.004 47.1676L124.61 47.0426L125.053 46.51L125.018 46.4723L124.408 46.953L123.314 47.2919L122.711 46.8363L122.649 46.8874L123.054 47.5145L122.138 51.22Z" fill="#E1D7DB"/>
<path d="M124.572 44.6087C124.604 44.771 124.441 45.0325 124.319 45.0724C124.319 45.0724 124.51 45.2224 124.639 44.9754C124.779 44.7304 124.572 44.6087 124.572 44.6087ZM125.717 45.571C125.736 45.6893 125.628 45.8776 125.54 45.903C125.54 45.903 125.677 46.0115 125.772 45.8314C125.866 45.6613 125.717 45.571 125.717 45.571ZM125.779 46.1347C125.716 46.2481 125.492 46.3316 125.395 46.2927C125.395 46.2927 125.434 46.477 125.638 46.3898C125.839 46.3126 125.779 46.1347 125.779 46.1347ZM125.235 45.9193C125.106 45.9995 124.826 45.9371 124.758 45.8517C124.758 45.8517 124.687 46.0677 124.941 46.1043C125.196 46.1308 125.235 45.9193 125.235 45.9193Z" fill="#E1D7DB"/>
<path d="M150.449 56.636C150.449 56.636 150.527 55.9317 149.798 55.8174C149.079 55.705 148.991 56.1261 148.991 56.1261C148.991 56.1261 148.846 54.9428 148.031 54.8438C147.214 54.7549 146.997 55.4751 146.997 55.4751C146.997 55.4751 145.782 55.229 145.706 56.1422L150.832 57.1549C150.832 57.1549 150.892 56.7703 150.449 56.636ZM124.656 51.8539C124.656 51.8539 124.734 51.1497 124.006 51.0354C123.287 50.9229 123.198 51.3441 123.198 51.3441C123.198 51.3441 123.053 50.1608 122.238 50.0618C121.421 49.9728 121.204 50.6931 121.204 50.6931C121.204 50.6931 119.989 50.447 119.914 51.3602L125.039 52.3729C125.039 52.3729 125.1 51.9883 124.656 51.8539Z" fill="#EBE7E9"/>
<path d="M146.408 44.3757L127.424 40.856L125.342 52.0855L144.326 55.6052L146.408 44.3757Z" fill="#EBE7E9"/>
<path d="M145.925 46.9842L127.258 41.7523L127.422 40.866L146.408 44.3757L145.925 46.9842Z" fill="#EDEBEC"/>
<path d="M144.548 55.646L125.121 52.0441C124.758 51.9769 124.472 51.8925 124.405 52.2551L145.151 56.1016C145.209 55.7372 144.911 55.7132 144.548 55.646Z" fill="#E1D7DB"/>
<path d="M147.305 44.5413L125.992 40.6003L128.632 36.4748L146.317 39.7537L147.305 44.5413Z" fill="#EBE7E9"/>
<path d="M147.305 44.5415L125.992 40.6005L146.645 41.3043L147.305 44.5415Z" fill="#E1D7DB"/>
<path d="M132.289 44.4552L128.864 43.8203L127.785 49.6415L131.209 50.2764L132.289 44.4552Z" fill="#EBE7E9"/>
<path d="M132.025 44.584L129.054 44.0332L128.036 49.5221L131.007 50.0729L132.025 44.584Z" fill="#E1D7DB"/>
<path d="M131.433 47.7766L128.036 49.5221L128.163 48.8372L129.717 47.9274L128.292 48.1423L128.613 46.41L132.025 44.584L131.747 46.0847L130.062 46.8557L131.661 46.5479L131.433 47.7766Z" fill="#F6F6F6"/>
<path d="M131.691 47.2821L128.388 46.6697L128.36 46.8207L131.663 47.4332L131.691 47.2821Z" fill="#E1D7DB"/>
<path d="M144.001 46.6271L140.577 45.9922L139.498 51.8134L142.922 52.4483L144.001 46.6271Z" fill="#EBE7E9"/>
<path d="M143.75 46.7469L140.779 46.196L139.761 51.6849L142.732 52.2358L143.75 46.7469Z" fill="#E1D7DB"/>
<path d="M143.156 49.9496L139.759 51.695L139.886 51.0101L141.44 50.1003L140.015 50.3152L140.336 48.5829L143.75 46.7469L143.472 48.2475L141.785 49.0286L143.384 48.7209L143.156 49.9496Z" fill="#F6F6F6"/>
<path d="M143.414 49.4565L140.111 48.844L140.083 48.9951L143.386 49.6075L143.414 49.4565Z" fill="#E1D7DB"/>
<path d="M138.971 47.0697L133.402 46.0371L132.048 53.3388L137.617 54.3714L138.971 47.0697Z" fill="#EBE7E9"/>
<path d="M138.712 47.2302L133.586 46.2798L132.271 53.37L137.397 54.3204L138.712 47.2302Z" fill="#E1D7DB"/>
<path d="M137.989 51.1278L132.344 52.9772L132.497 52.1514L135.077 51.1608L132.654 51.3054L133.048 49.1803L138.712 47.2302L138.372 49.0632L135.577 49.868L138.268 49.6272L137.989 51.1278Z" fill="#F6F6F6"/>
<path d="M136.252 46.6176L136.101 46.5896L134.757 53.8409L134.908 53.869L136.252 46.6176Z" fill="#E1D7DB"/>
<path d="M137.839 45.0268C137.703 45.762 137 46.236 136.275 46.1016C135.54 45.9653 135.066 45.2627 135.201 44.5376C135.337 43.8024 136.039 43.3284 136.765 43.4629C137.49 43.5973 137.974 44.3017 137.839 45.0268Z" fill="#EBE7E9"/>
<path d="M137.608 44.9834C137.496 45.5876 136.911 45.9896 136.306 45.8776C135.702 45.7656 135.3 45.1806 135.412 44.5763C135.524 43.972 136.109 43.57 136.713 43.682C137.326 43.806 137.72 44.3791 137.608 44.9834Z" fill="#F6F6F6"/>
<path d="M137.802 44.946L137.774 45.0971L136.575 44.8749L136.353 46.0734L136.202 46.0454L136.424 44.8469L135.226 44.6247L135.254 44.4736L136.452 44.6958L136.675 43.4973L136.826 43.5254L136.603 44.7238L137.802 44.946Z" fill="#EBE7E9"/>
<path d="M136.147 50.4944L135.735 50.418L135.722 50.4883L136.134 50.5648L136.147 50.4944Z" fill="#E1D7DB"/>
<path d="M135.171 50.3135L134.758 50.2371L134.745 50.3074L135.158 50.3839L135.171 50.3135Z" fill="#E1D7DB"/>
<path d="M127.448 51.4611L128.132 51.5879L128.182 51.3164L127.498 51.1896L127.448 51.4611Z" fill="#E1D7DB"/>
<path d="M127.135 51.1142L127.819 51.241L127.869 50.9695L127.185 50.8427L127.135 51.1142Z" fill="#E1D7DB"/>
<path d="M126.862 50.7824L127.546 50.9092L127.596 50.6377L126.912 50.5109L126.862 50.7824Z" fill="#E1D7DB"/>
<path d="M127.55 50.913L128.233 51.0398L128.284 50.7683L127.6 50.6415L127.55 50.913Z" fill="#E1D7DB"/>
<path d="M132.454 43.5639L133.138 43.6907L133.188 43.4192L132.504 43.2924L132.454 43.5639Z" fill="#E1D7DB"/>
<path d="M132.128 43.226L132.812 43.3528L132.862 43.0813L132.179 42.9545L132.128 43.226Z" fill="#E1D7DB"/>
<path d="M131.857 42.8837L132.541 43.0105L132.591 42.739L131.908 42.6122L131.857 42.8837Z" fill="#E1D7DB"/>
<path d="M132.555 43.0168L133.239 43.1436L133.289 42.8721L132.606 42.7453L132.555 43.0168Z" fill="#E1D7DB"/>
<path d="M142.187 54.0546L142.871 54.1814L142.921 53.9099L142.238 53.7831L142.187 54.0546Z" fill="#E1D7DB"/>
<path d="M141.916 53.7123L142.6 53.8391L142.65 53.5676L141.966 53.4408L141.916 53.7123Z" fill="#E1D7DB"/>
<path d="M142.614 53.8454L143.297 53.9722L143.348 53.7007L142.664 53.5739L142.614 53.8454Z" fill="#E1D7DB"/>
<path d="M139.902 44.9608L139.219 44.834L139.168 45.1055L139.852 45.2322L139.902 44.9608Z" fill="#E1D7DB"/>
<path d="M140.174 45.2925L139.491 45.1658L139.44 45.4373L140.124 45.564L140.174 45.2925Z" fill="#E1D7DB"/>
<path d="M139.489 45.1658L138.805 45.0391L138.755 45.3106L139.439 45.4373L139.489 45.1658Z" fill="#E1D7DB"/>
<path d="M161.526 23.9684L120.576 16.3762L118.741 26.2763L159.691 33.8685L161.526 23.9684Z" fill="#E1D7DB"/>
<path d="M124.2 19.5897L127.342 20.1723L127.166 21.119L125.203 20.7549L125.014 21.7721L126.484 22.0447L126.314 22.9612L124.844 22.6886L124.482 24.6424L123.303 24.424L124.2 19.5897ZM129.679 25.6582C128.31 25.4042 127.382 24.1697 127.651 22.7194C127.92 21.2691 129.226 20.4592 130.596 20.7131C131.976 20.9689 132.875 22.1878 132.606 23.6381C132.337 25.0883 131.049 25.9121 129.679 25.6582ZM129.879 24.5805C130.655 24.7243 131.251 24.2619 131.408 23.4159C131.566 22.5598 131.164 21.9226 130.398 21.7807C129.613 21.635 129.018 22.0874 128.86 22.9435C128.703 23.7895 129.094 24.4349 129.879 24.5805ZM136.023 21.7819C137.202 22.0003 137.669 22.7954 137.514 23.6313C137.402 24.2356 136.963 24.748 136.177 24.8314L136.94 26.9522L135.611 26.7057L134.941 24.6961L134.659 24.6438L134.321 26.4667L133.143 26.2483L134.039 21.414L136.023 21.7819ZM135.782 22.7476L135.057 22.6131L134.835 23.8116L135.56 23.9461C136.003 24.0282 136.247 23.8339 136.316 23.4613C136.382 23.1088 136.215 22.8279 135.782 22.7476ZM141.523 27.854C140.486 27.6617 139.765 26.9968 139.916 26.0143L141.165 26.2458C141.126 26.6241 141.334 26.8502 141.657 26.9099C141.999 26.9734 142.252 26.8433 142.305 26.5613C142.471 25.6649 139.964 25.7002 140.302 23.9918C140.472 23.0753 141.31 22.71 142.327 22.8985C143.385 23.0946 143.993 23.749 143.873 24.6748L142.604 24.4396C142.642 24.1236 142.454 23.9013 142.144 23.8333C141.864 23.771 141.624 23.8828 141.568 24.185C141.413 25.0209 143.869 25.0908 143.57 26.7022C143.411 27.506 142.651 28.0632 141.523 27.854ZM147.523 28.0287L145.72 27.6945L145.269 28.4964L144.04 28.2686L146.689 23.7593L148.049 24.0114L148.905 29.1705L147.656 28.939L147.523 28.0287ZM147.121 25.1937L146.198 26.856L147.387 27.0764L147.121 25.1937ZM151.845 24.7153L151.119 28.6331L152.66 28.9187L152.492 29.8252L149.773 29.321L150.669 24.4868L151.847 24.7052L151.845 24.7153ZM157.078 26.6647L155.296 26.3342L155.115 27.3111L156.686 27.6024L156.518 28.5089L154.946 28.2176L154.75 29.2751L156.533 29.6056L156.358 30.5523L153.397 30.0033L154.293 25.1691L157.254 25.718L157.078 26.6647Z" fill="#F6F6F6"/>
<path d="M100.014 39L70.9999 45.2705L80.2097 87.8857L109.224 81.6151L100.014 39Z" fill="#F6F6F6"/>
<path d="M91.6409 72.1281L82.3324 74.1398C82.1483 74.1796 82.0435 74.4141 82.0977 74.665C82.152 74.916 82.3442 75.0863 82.5284 75.0465L91.8368 73.0348C92.021 72.995 92.1257 72.7605 92.0715 72.5095C92.0173 72.2586 91.825 72.0883 91.6409 72.1281Z" fill="#E1D7DB"/>
<path d="M99.0789 71.4701L101.821 70.8773C102 70.8388 102.1 70.6054 102.045 70.3544C101.991 70.1034 101.804 69.9321 101.625 69.9706L98.8829 70.5633C98.7047 70.6019 98.6047 70.8353 98.6589 71.0863C98.7149 71.3453 98.9006 71.5086 99.0789 71.4701ZM93.3983 72.6977L97.584 71.7931C97.7622 71.7546 97.8622 71.5211 97.808 71.2702C97.7537 71.0192 97.5663 70.8479 97.388 70.8864L93.2023 71.791C93.0241 71.8295 92.9241 72.063 92.9783 72.3139C93.0343 72.573 93.2201 72.7362 93.3983 72.6977Z" fill="#EBE7E9"/>
<path d="M94.2382 75.3632L84.9297 77.3749C84.7456 77.4147 84.6408 77.6492 84.695 77.9001C84.7493 78.1511 84.9415 78.3214 85.1257 78.2816L94.4341 76.2699C94.6183 76.2301 94.723 75.9956 94.6688 75.7446C94.6146 75.4937 94.4223 75.3234 94.2382 75.3632Z" fill="#E1D7DB"/>
<path d="M100.616 73.985L96.6865 74.8341C96.5192 74.8703 96.428 75.1018 96.4823 75.3528C96.5365 75.6037 96.7152 75.777 96.8825 75.7408L100.812 74.8917C100.979 74.8555 101.07 74.624 101.016 74.373C100.962 74.122 100.783 73.9488 100.616 73.985Z" fill="#EBE7E9"/>
<path d="M102.015 71.7929L92.8886 73.7653C92.7081 73.8043 92.6058 74.0364 92.6596 74.2851C92.7133 74.5338 92.9023 74.703 93.0828 74.6639L102.209 72.6916C102.39 72.6526 102.492 72.4205 102.438 72.1718C102.384 71.923 102.196 71.7539 102.015 71.7929ZM82.9122 76.8536L85.6903 76.2532C85.8709 76.2142 85.9731 75.9821 85.9193 75.7334C85.8656 75.4846 85.6766 75.3155 85.4961 75.3545L82.718 75.9549C82.5374 75.9939 82.4352 76.226 82.489 76.4747C82.5427 76.7235 82.7317 76.8926 82.9122 76.8536Z" fill="#E1D7DB"/>
<path d="M91.3527 75.0377C91.52 75.0015 91.6112 74.7699 91.5569 74.519C91.5027 74.268 91.324 74.0948 91.1567 74.131L87.2277 74.9801C87.0603 75.0162 86.9692 75.2478 87.0234 75.4988C87.0776 75.7497 87.2563 75.923 87.4236 75.8868L91.3527 75.0377Z" fill="#EBE7E9"/>
<path d="M83.2629 70.954L83.8086 71.923L83.7955 71.914L82.8289 71.4613L82.1273 72.2863L82.2241 71.1785L81.2444 70.7169L82.2832 70.4924L82.3801 69.3845L82.9258 70.3535L83.9645 70.129L83.2629 70.954Z" fill="#FFBF9F"/>
<path d="M87.8003 69.9735L88.3466 70.9423L88.3281 70.9345L87.3653 70.481L86.662 71.3064L86.7595 70.1984L85.7781 69.7371L86.819 69.5122L86.9165 68.4042L87.4628 69.373L88.4982 69.1493L87.8003 69.9735Z" fill="#FFBF9F"/>
<path d="M92.3338 68.9937L92.8801 69.9626L92.8616 69.9547L91.8987 69.5013L91.1954 70.3266L91.2929 69.2187L90.3116 68.7574L91.3524 68.5324L91.4499 67.4245L91.9909 68.3945L93.0317 68.1695L92.3338 68.9937Z" fill="#FFBF9F"/>
<path d="M95.9552 68.211L96.5016 69.1798L96.4884 69.1708L95.5256 68.7173L94.8223 69.5427L94.9198 68.4348L93.9384 67.9734L94.9792 67.7485L95.0767 66.6405L95.6177 67.6105L96.6585 67.3856L95.9552 68.211Z" fill="#FFBF9F"/>
<path d="M100.208 67.2918L100.862 68.2374L100.845 68.2292L99.6066 67.8352L98.6154 68.7228L98.8202 67.5917L97.5652 67.1895L98.953 66.8896L99.1578 65.7584L99.8043 66.7056L101.192 66.4057L100.208 67.2918Z" fill="#EBE7E9"/>
<path d="M98.8955 57.2666C99.1002 57.053 99.2037 56.7484 99.1364 56.4368C99.0302 55.9454 98.5492 55.6353 98.0578 55.7415C97.938 55.7674 97.8293 55.816 97.7305 55.8813C97.568 55.2453 96.9293 54.8439 96.2821 54.9837C95.7188 55.1055 95.3296 55.5973 95.3117 56.1531C95.2492 56.1541 95.1867 56.1551 95.1207 56.1693C94.6653 56.2677 94.3788 56.7123 94.4772 57.1677C94.5588 57.5452 94.8851 57.8071 95.2534 57.8279C95.2608 57.9204 95.2683 58.0129 95.289 58.1087C95.4897 59.0376 96.4007 59.6247 97.3295 59.424C97.737 59.3359 98.0774 59.1118 98.3133 58.81C98.4182 58.8312 98.5313 58.8318 98.6451 58.8072C99.1006 58.7088 99.3871 58.2643 99.2887 57.8089C99.2309 57.5705 99.0837 57.3827 98.8955 57.2666Z" fill="#EBE7E9"/>
<path d="M97.6451 61.871L98.2324 61.7441L97.5214 58.4542L98.1736 57.7864L98.5931 57.6957L98.584 57.6538L98.2334 57.6856L98.4109 57.1141L98.3685 57.0919L98.0386 57.6838L97.2728 58.3198L96.6353 58.1565L96.6063 58.2254L97.1362 58.5876L97.6451 61.871Z" fill="#E1D7DB"/>
<path d="M97.3807 55.7434C97.4632 55.8636 97.4204 56.13 97.3362 56.2046C97.3362 56.2046 97.5367 56.2617 97.5653 56.0171C97.594 55.7726 97.3807 55.7434 97.3807 55.7434ZM98.6313 56.1317C98.694 56.2185 98.6596 56.4079 98.6015 56.4581C98.6015 56.4581 98.7489 56.5015 98.7665 56.322C98.7795 56.1499 98.6313 56.1317 98.6313 56.1317ZM98.8642 56.5706C98.8562 56.679 98.6985 56.8197 98.612 56.8259C98.612 56.8259 98.7043 56.9627 98.8381 56.8272C98.9766 56.6844 98.8642 56.5706 98.8642 56.5706ZM98.3508 56.575C98.2743 56.6856 98.0273 56.7327 97.9412 56.6823C97.9412 56.6823 97.9514 56.8745 98.1718 56.8206C98.3909 56.7607 98.3508 56.575 98.3508 56.575Z" fill="#E1D7DB"/>
<path d="M83.3028 61.9412C83.4473 61.7971 83.5137 61.582 83.4684 61.3723C83.3959 61.0367 83.0606 60.8206 82.725 60.8932C82.6412 60.9113 82.5671 60.9461 82.5017 60.9916C82.3879 60.552 81.9519 60.2762 81.5025 60.3733C81.113 60.4575 80.8477 60.7971 80.8355 61.1761C80.791 61.1732 80.749 61.1822 80.7071 61.1913C80.3954 61.2586 80.1982 61.5647 80.2655 61.8763C80.3212 62.134 80.5429 62.3182 80.7968 62.3323C80.7978 62.3948 80.8061 62.462 80.819 62.5219C80.9563 63.1571 81.583 63.5611 82.2182 63.4238C82.4939 63.3642 82.7308 63.2127 82.8923 63.0022C82.9647 63.0179 83.0452 63.013 83.1231 62.9962C83.4347 62.9288 83.632 62.6228 83.5646 62.3112C83.543 62.1528 83.44 62.0245 83.3028 61.9412Z" fill="#EBE7E9"/>
<path d="M82.4511 65.1106L82.8526 65.0238L82.3631 62.7586L82.8106 62.3044L83.1042 62.2409L83.0977 62.211L82.8516 62.2328L82.9729 61.8365L82.9451 61.8237L82.7192 62.23L82.1933 62.6699L81.7551 62.5576L81.7329 62.6L82.1012 62.8529L82.4511 65.1106Z" fill="#E1D7DB"/>
<path d="M82.2682 60.898C82.3236 60.9801 82.294 61.1621 82.2358 61.2123C82.2358 61.2123 82.3759 61.2511 82.3902 61.0849C82.4104 60.9174 82.2682 60.898 82.2682 60.898ZM83.1225 61.165C83.1607 61.2257 83.1447 61.3546 83.1019 61.3889C83.1019 61.3889 83.2022 61.4175 83.2135 61.2958C83.2262 61.1802 83.1225 61.165 83.1225 61.165ZM83.287 61.4618C83.2786 61.5389 83.1743 61.6367 83.1118 61.6377C83.1118 61.6377 83.1758 61.7305 83.2681 61.6353C83.3617 61.5461 83.287 61.4618 83.287 61.4618ZM82.9372 61.4685C82.8843 61.5426 82.7152 61.5729 82.6582 61.5413C82.6582 61.5413 82.6687 61.677 82.8172 61.6386C82.9644 61.5943 82.9372 61.4685 82.9372 61.4685Z" fill="#E1D7DB"/>
<path d="M99.3347 61.5623C99.3347 61.5623 99.2154 61.1553 98.7865 61.2606C98.3636 61.3645 98.412 61.6175 98.412 61.6175C98.412 61.6175 98.0585 60.9976 97.5856 61.1312C97.114 61.2708 97.1606 61.7186 97.1606 61.7186C97.1606 61.7186 96.4329 61.8633 96.6021 62.385L99.666 61.7604C99.666 61.7604 99.6108 61.534 99.3347 61.5623ZM83.988 64.879C83.988 64.879 83.8687 64.472 83.4398 64.5772C83.0169 64.6812 83.0653 64.9342 83.0653 64.9342C83.0653 64.9342 82.7118 64.3143 82.2389 64.4479C81.7673 64.5875 81.8139 65.0353 81.8139 65.0353C81.8139 65.0353 81.0862 65.18 81.2554 65.7017L84.3193 65.0771C84.3193 65.0771 84.2641 64.8507 83.988 64.879Z" fill="#EBE7E9"/>
<path d="M94.2724 55.7258L82.9766 58.167L84.4206 64.8486L95.7164 62.4074L94.2724 55.7258Z" fill="#EBE7E9"/>
<path d="M94.6078 57.2778L83.0918 58.7003L82.9779 58.173L94.2724 55.7258L94.6078 57.2778Z" fill="#EDEBEC"/>
<path d="M95.8482 62.3787L84.2888 64.8769C84.073 64.9235 83.8954 64.9431 83.942 65.1588L96.2865 62.491C96.2338 62.2765 96.0639 62.3321 95.8482 62.3787Z" fill="#E1D7DB"/>
<path d="M94.8054 55.6102L82.1267 58.3566L82.6316 55.4688L93.1544 53.1946L94.8054 55.6102Z" fill="#EBE7E9"/>
<path d="M94.8058 55.6102L82.127 58.3566L93.6935 53.9752L94.8058 55.6102Z" fill="#E1D7DB"/>
<path d="M86.4939 59.0309L84.4564 59.4712L85.205 62.9348L87.2424 62.4945L86.4939 59.0309Z" fill="#EBE7E9"/>
<path d="M86.378 59.1631L84.6102 59.5452L85.316 62.8111L87.0838 62.429L86.378 59.1631Z" fill="#E1D7DB"/>
<path d="M86.7885 61.0627L85.316 62.8111L85.228 62.4036L85.876 61.5422L85.1386 61.9901L84.9159 60.9594L86.378 59.1631L86.571 60.056L85.8188 60.8709L86.6305 60.3316L86.7885 61.0627Z" fill="#F6F6F6"/>
<path d="M86.817 60.73L84.8514 61.1548L84.8709 61.2447L86.8364 60.8199L86.817 60.73Z" fill="#E1D7DB"/>
<path d="M93.4631 57.5248L91.4257 57.9651L92.1742 61.4287L94.2116 60.9884L93.4631 57.5248Z" fill="#EBE7E9"/>
<path d="M93.352 57.6492L91.5842 58.0312L92.29 61.2971L94.0578 60.9151L93.352 57.6492Z" fill="#E1D7DB"/>
<path d="M93.7638 59.5548L92.2913 61.3031L92.2033 60.8956L92.8513 60.0343L92.1139 60.4822L91.8912 59.4515L93.352 57.6492L93.545 58.5421L92.7941 59.363L93.6058 58.8237L93.7638 59.5548Z" fill="#F6F6F6"/>
<path d="M93.7923 59.2227L91.8268 59.6475L91.8462 59.7373L93.8117 59.3126L93.7923 59.2227Z" fill="#E1D7DB"/>
<path d="M90.7877 58.9313L87.4739 59.6475L88.4128 63.992L91.7266 63.2758L90.7877 58.9313Z" fill="#EBE7E9"/>
<path d="M90.6818 59.0796L87.6316 59.7388L88.5433 63.9575L91.5935 63.2983L90.6818 59.0796Z" fill="#E1D7DB"/>
<path d="M91.1829 61.3987L88.4928 63.7238L88.3866 63.2324L89.5823 62.0896L88.2778 62.729L88.0046 61.4646L90.6818 59.0796L90.9175 60.1702L89.5598 61.2602L90.99 60.5058L91.1829 61.3987Z" fill="#F6F6F6"/>
<path d="M89.1821 59.3094L89.0922 59.3289L90.0246 63.6434L90.1145 63.624L89.1821 59.3094Z" fill="#E1D7DB"/>
<path d="M89.691 58.0644C89.7855 58.5018 89.5071 58.9258 89.0756 59.019C88.6382 59.1136 88.2142 58.8351 88.1209 58.4037C88.0264 57.9662 88.3048 57.5422 88.7363 57.449C89.1678 57.3558 89.5977 57.6329 89.691 58.0644Z" fill="#EBE7E9"/>
<path d="M89.553 58.094C89.6307 58.4535 89.4005 58.8106 89.041 58.8883C88.6814 58.966 88.3243 58.7359 88.2466 58.3763C88.1689 58.0168 88.3991 57.6597 88.7586 57.582C89.1255 57.509 89.4753 57.7345 89.553 58.094Z" fill="#F6F6F6"/>
<path d="M89.6517 58.0285L89.6711 58.1184L88.958 58.2725L89.1121 58.9856L89.0222 59.005L88.8681 58.2919L88.155 58.4461L88.1356 58.3562L88.8487 58.2021L88.6945 57.489L88.7844 57.4695L88.9386 58.1826L89.6517 58.0285Z" fill="#EBE7E9"/>
<path d="M90.0196 61.4743L89.7743 61.5273L89.7833 61.5692L90.0286 61.5162L90.0196 61.4743Z" fill="#E1D7DB"/>
<path d="M89.4385 61.6001L89.1932 61.6531L89.2023 61.695L89.4476 61.6419L89.4385 61.6001Z" fill="#E1D7DB"/>
<path d="M85.4391 64.0174L85.8459 63.9294L85.811 63.7679L85.4042 63.8558L85.4391 64.0174Z" fill="#E1D7DB"/>
<path d="M85.1861 63.8982L85.5929 63.8103L85.558 63.6488L85.1511 63.7367L85.1861 63.8982Z" fill="#E1D7DB"/>
<path d="M84.9588 63.7779L85.3656 63.6899L85.3307 63.5284L84.9239 63.6163L84.9588 63.7779Z" fill="#E1D7DB"/>
<path d="M85.3686 63.6912L85.7754 63.6033L85.7405 63.4417L85.3336 63.5297L85.3686 63.6912Z" fill="#E1D7DB"/>
<path d="M86.3794 58.5008L86.7863 58.4128L86.7513 58.2513L86.3445 58.3392L86.3794 58.5008Z" fill="#E1D7DB"/>
<path d="M86.1215 58.3892L86.5283 58.3013L86.4934 58.1397L86.0866 58.2277L86.1215 58.3892Z" fill="#E1D7DB"/>
<path d="M85.8929 58.2627L86.2997 58.1748L86.2648 58.0133L85.8579 58.1012L85.8929 58.2627Z" fill="#E1D7DB"/>
<path d="M86.309 58.1751L86.7158 58.0872L86.6809 57.9256L86.2741 58.0135L86.309 58.1751Z" fill="#E1D7DB"/>
<path d="M94.177 62.0452L94.5839 61.9573L94.549 61.7957L94.1421 61.8837L94.177 62.0452Z" fill="#E1D7DB"/>
<path d="M93.9481 61.9187L94.355 61.8308L94.3201 61.6693L93.9132 61.7572L93.9481 61.9187Z" fill="#E1D7DB"/>
<path d="M94.364 61.8311L94.7709 61.7432L94.736 61.5816L94.3291 61.6695L94.364 61.8311Z" fill="#E1D7DB"/>
<path d="M90.815 57.5517L90.4082 57.6396L90.4431 57.8012L90.8499 57.7133L90.815 57.5517Z" fill="#E1D7DB"/>
<path d="M91.0417 57.6721L90.6349 57.76L90.6698 57.9216L91.0766 57.8336L91.0417 57.6721Z" fill="#E1D7DB"/>
<path d="M90.6341 57.7602L90.2273 57.8481L90.2622 58.0097L90.669 57.9218L90.6341 57.7602Z" fill="#E1D7DB"/>
<path d="M97.9065 40.9654L73.5411 46.2312L74.8142 52.1218L99.1795 46.856L97.9065 40.9654Z" fill="#E1D7DB"/>
<path d="M76.2841 47.1688L78.1538 46.7647L78.2755 47.328L77.107 47.5805L77.2378 48.1858L78.1127 47.9967L78.2305 48.542L77.3556 48.7311L77.6069 49.8936L76.9058 50.0452L76.2841 47.1688ZM80.7115 49.254C79.8965 49.4302 79.0992 48.9627 78.9127 48.0998C78.7262 47.2369 79.2606 46.4879 80.0756 46.3117C80.8966 46.1343 81.6745 46.5997 81.861 47.4626C82.0475 48.3255 81.5264 49.0779 80.7115 49.254ZM80.5729 48.6128C81.0343 48.5131 81.2567 48.1201 81.1479 47.6167C81.0378 47.1074 80.6683 46.8485 80.2129 46.9469C79.7455 47.048 79.5218 47.435 79.6318 47.9444C79.7406 48.4477 80.1055 48.7139 80.5729 48.6128ZM83.3193 45.6484C84.0204 45.4968 84.462 45.8279 84.5695 46.3253C84.6472 46.6848 84.5233 47.0691 84.1083 47.2968L85.0196 48.2916L84.2286 48.4626L83.3949 47.5074L83.2271 47.5437L83.4615 48.6283L82.7604 48.7799L82.1388 45.9035L83.3193 45.6484ZM83.409 46.2374L82.9775 46.3306L83.1316 47.0437L83.5631 46.9505C83.8267 46.8935 83.9168 46.7298 83.8689 46.5081C83.8236 46.2983 83.6666 46.1817 83.409 46.2374ZM87.7586 47.731C87.1414 47.8644 86.5899 47.6637 86.4463 47.0863L87.1894 46.9257C87.2553 47.1436 87.4224 47.2204 87.6142 47.1789C87.8179 47.1349 87.9277 47.0045 87.8915 46.8367C87.7762 46.3034 86.4002 46.9019 86.192 45.8805C86.0742 45.3352 86.4529 44.9398 87.0581 44.809C87.6873 44.673 88.1741 44.8939 88.3219 45.4328L87.5669 45.596C87.5148 45.4128 87.3596 45.3334 87.1725 45.3676C87.0035 45.3978 86.897 45.5149 86.9359 45.6947C87.0434 46.1921 88.4157 45.6634 88.6229 46.6222C88.7205 47.1029 88.4298 47.586 87.7586 47.731ZM91.1117 46.4419L90.039 46.6737L89.9753 47.2206L89.2442 47.3786L89.6653 44.2769L90.4743 44.102L92.1386 46.7531L91.3955 46.9137L91.1117 46.4419ZM90.2352 44.9691L90.1095 46.1002L90.8166 45.9474L90.2352 44.9691ZM92.7334 43.6138L93.2372 45.9449L94.1541 45.7467L94.2706 46.286L92.6527 46.6357L92.031 43.7593L92.7321 43.6078L92.7334 43.6138ZM96.0731 43.4816L95.0125 43.7109L95.1381 44.2921L96.0729 44.0901L96.1895 44.6294L95.2546 44.8315L95.3906 45.4607L96.4513 45.2314L96.573 45.7947L94.8112 46.1755L94.1896 43.2991L95.9514 42.9183L96.0731 43.4816Z" fill="#F6F6F6"/>
<path d="M87.2775 49.9508L58.6776 42L46.9999 84.006L75.5998 91.9568L87.2775 49.9508Z" fill="#F6F6F6"/>
<path d="M64.4504 75.3775L55.275 72.8268C55.0935 72.7763 54.8917 72.9351 54.8229 73.1825C54.7541 73.4298 54.8451 73.67 55.0266 73.7205L64.202 76.2713C64.3835 76.3217 64.5853 76.1629 64.6541 75.9155C64.7229 75.6682 64.632 75.428 64.4504 75.3775Z" fill="#E1D7DB"/>
<path d="M71.3403 78.2559L74.0436 79.0074C74.2193 79.0563 74.4164 78.8962 74.4852 78.6488C74.554 78.4014 74.4678 78.1625 74.2921 78.1137L71.5887 77.3621C71.413 77.3133 71.2159 77.4734 71.1471 77.7208C71.0761 77.9761 71.1646 78.207 71.3403 78.2559ZM65.7409 76.6993L69.8668 77.8462C70.0424 77.8951 70.2396 77.735 70.3084 77.4876C70.3771 77.2402 70.2909 77.0013 70.1152 76.9525L65.9894 75.8055C65.8137 75.7567 65.6165 75.9168 65.5478 76.1642C65.4768 76.4195 65.5652 76.6504 65.7409 76.6993Z" fill="#EBE7E9"/>
<path d="M65.2441 79.4495L56.0687 76.8988C55.8872 76.8483 55.6854 77.0071 55.6166 77.2545C55.5478 77.5019 55.6388 77.7421 55.8203 77.7925L64.9957 80.3433C65.1772 80.3937 65.379 80.2349 65.4478 79.9876C65.5166 79.7402 65.4257 79.5 65.2441 79.4495Z" fill="#E1D7DB"/>
<path d="M71.5303 81.1971L67.6574 80.1204C67.4925 80.0746 67.304 80.2371 67.2353 80.4845C67.1665 80.7318 67.244 80.9683 67.409 81.0142L71.2818 82.0908C71.4468 82.1367 71.6352 81.9742 71.704 81.7268C71.7728 81.4794 71.6952 81.2429 71.5303 81.1971Z" fill="#EBE7E9"/>
<path d="M73.789 79.9081L64.7931 77.4073C64.6152 77.3578 64.4167 77.5156 64.3485 77.7608C64.2803 78.006 64.3689 78.2436 64.5469 78.2931L73.5428 80.794C73.7207 80.8434 73.9192 80.6856 73.9874 80.4404C74.0555 80.1952 73.967 79.9576 73.789 79.9081ZM54.5255 75.4986L57.2639 76.2599C57.4419 76.3094 57.6404 76.1516 57.7085 75.9064C57.7767 75.6612 57.6882 75.4236 57.5102 75.3741L54.7718 74.6128C54.5938 74.5633 54.3953 74.7212 54.3272 74.9664C54.259 75.2115 54.3476 75.4492 54.5255 75.4986Z" fill="#E1D7DB"/>
<path d="M62.8413 77.8189C63.0062 77.8647 63.1947 77.7022 63.2634 77.4548C63.3322 77.2074 63.2547 76.971 63.0898 76.9251L59.2169 75.8484C59.0519 75.8026 58.8635 75.9651 58.7947 76.2125C58.7259 76.4599 58.8035 76.6963 58.9684 76.7422L62.8413 77.8189Z" fill="#EBE7E9"/>
<path d="M57.5811 70.4398L57.6132 71.5514L57.6057 71.5373L56.9609 70.6869L55.9559 71.0907L56.5571 70.1551L55.9048 69.2906L56.9287 69.5753L57.5299 68.6398L57.5621 69.7514L58.586 70.036L57.5811 70.4398Z" fill="#FFBF9F"/>
<path d="M62.0536 71.6833L62.0864 72.795L62.0736 72.7795L61.4324 71.93L60.4258 72.3334L61.0276 71.398L60.3737 70.5331L61.3996 70.8183L62.0015 69.8829L62.0342 70.9947L63.0549 71.2784L62.0536 71.6833Z" fill="#FFBF9F"/>
<path d="M66.5222 72.9254L66.555 74.0372L66.5422 74.0217L65.901 73.1722L64.8944 73.5756L65.4963 72.6402L64.8423 71.7753L65.8682 72.0605L66.4701 71.1251L66.4976 72.2354L67.5235 72.5206L66.5222 72.9254Z" fill="#FFBF9F"/>
<path d="M70.092 73.9179L70.1248 75.0296L70.1173 75.0155L69.4761 74.1661L68.4695 74.5694L69.0713 73.6341L68.4174 72.7691L69.4433 73.0544L70.0452 72.119L70.0726 73.2293L71.0986 73.5145L70.092 73.9179Z" fill="#FFBF9F"/>
<path d="M74.284 75.083L74.4225 76.2242L74.4115 76.2091L73.4988 75.2842L72.2084 75.6087L72.916 74.7028L71.9923 73.7628L73.3603 74.1431L74.0679 73.2372L74.1993 74.3764L75.5673 74.7566L74.284 75.083Z" fill="#EBE7E9"/>
<path d="M77.7871 65.5987C78.0677 65.5049 78.3011 65.2834 78.3865 64.9762C78.5212 64.4919 78.2397 63.9937 77.7553 63.859C77.6372 63.8262 77.5184 63.8186 77.4006 63.8304C77.5527 63.1918 77.1741 62.5393 76.5361 62.362C75.9809 62.2076 75.4075 62.4618 75.1331 62.9455C75.0773 62.9172 75.0215 62.889 74.9565 62.871C74.5076 62.7462 74.0471 63.0063 73.9223 63.4552C73.8189 63.8273 73.9858 64.211 74.3022 64.4008C74.2657 64.4861 74.2293 64.5714 74.203 64.6659C73.9485 65.5815 74.4816 66.5251 75.3971 66.7796C75.7988 66.8913 76.2044 66.8513 76.5536 66.6939C76.6366 66.7615 76.7364 66.8147 76.8486 66.8459C77.2975 66.9707 77.758 66.7105 77.8828 66.2616C77.9426 66.0237 77.8996 65.789 77.7871 65.5987Z" fill="#EBE7E9"/>
<path d="M74.5379 69.0926L75.1168 69.2535L76.0183 66.0107L76.9064 65.723L77.3198 65.838L77.3313 65.7967L77.0061 65.6617L77.4292 65.2384L77.402 65.1991L76.8345 65.5694L75.8608 65.776L75.3726 65.3348L75.3148 65.3824L75.6153 65.9496L74.5379 69.0926Z" fill="#E1D7DB"/>
<path d="M77.1551 63.5458C77.1722 63.6906 77.0103 63.9065 76.9011 63.9333C76.9011 63.9333 77.052 64.0771 77.1912 63.874C77.3304 63.6709 77.1551 63.5458 77.1551 63.5458ZM78.0814 64.4715C78.0965 64.5775 77.978 64.7291 77.9031 64.7464C77.9031 64.7464 78.0134 64.8535 78.1125 64.7028C78.2041 64.5565 78.0814 64.4715 78.0814 64.4715ZM78.0833 64.9683C78.0258 65.0605 77.8207 65.1117 77.7413 65.0769C77.7413 65.0769 77.7593 65.241 77.9408 65.1832C78.1298 65.1213 78.0833 64.9683 78.0833 64.9683ZM77.6268 64.7333C77.5077 64.7956 77.2671 64.7223 77.2143 64.6377C77.2143 64.6377 77.1339 64.8126 77.3541 64.8674C77.5759 64.9164 77.6268 64.7333 77.6268 64.7333Z" fill="#E1D7DB"/>
<path d="M61.8101 62.4808C62.005 62.4205 62.1639 62.261 62.2214 62.0543C62.3133 61.7235 62.1172 61.3763 61.7864 61.2843C61.7037 61.2613 61.622 61.2577 61.5429 61.2675C61.6467 60.8255 61.3891 60.3785 60.9461 60.2553C60.5622 60.1486 60.1693 60.3257 59.9822 60.6555C59.9441 60.6322 59.9028 60.6207 59.8614 60.6092C59.5543 60.5238 59.2372 60.7029 59.1518 61.0101C59.0812 61.2641 59.1918 61.5302 59.41 61.6609C59.3818 61.7167 59.3578 61.78 59.3414 61.8391C59.1673 62.4652 59.5341 63.1144 60.1602 63.2885C60.4319 63.364 60.7122 63.3401 60.9531 63.2289C61.0098 63.2765 61.0833 63.3097 61.1601 63.331C61.4673 63.4164 61.7843 63.2373 61.8697 62.9301C61.9242 62.7798 61.8928 62.6184 61.8101 62.4808Z" fill="#EBE7E9"/>
<path d="M59.5815 64.8898L59.9773 64.9999L60.598 62.7671L61.2055 62.5733L61.4949 62.6537L61.5031 62.6242L61.275 62.529L61.5669 62.2347L61.5482 62.2104L61.1592 62.465L60.4891 62.6096L60.1534 62.3062L60.114 62.3335L60.3223 62.7286L59.5815 64.8898Z" fill="#E1D7DB"/>
<path d="M61.3799 61.0758C61.3907 61.1743 61.2798 61.3216 61.2049 61.339C61.2049 61.339 61.3109 61.4385 61.4009 61.298C61.4967 61.1592 61.3799 61.0758 61.3799 61.0758ZM62.0118 61.7097C62.0174 61.7812 61.9432 61.8879 61.8894 61.8983C61.8894 61.8983 61.9649 61.9702 62.0315 61.8679C62.0965 61.7714 62.0118 61.7097 62.0118 61.7097ZM62.0193 62.049C61.976 62.1133 61.8381 62.1514 61.7824 62.1231C61.7824 62.1231 61.7958 62.235 61.9218 62.1937C62.0462 62.1583 62.0193 62.049 62.0193 62.049ZM61.7066 61.8921C61.6252 61.9331 61.4615 61.8812 61.4257 61.8267C61.4257 61.8267 61.3719 61.9517 61.5212 61.9869C61.6721 62.0161 61.7066 61.8921 61.7066 61.8921Z" fill="#E1D7DB"/>
<path d="M76.1769 69.6056C76.1769 69.6056 76.2606 69.1898 75.8321 69.0834C75.4094 68.9786 75.3345 69.2251 75.3345 69.2251C75.3345 69.2251 75.3101 68.5119 74.8293 68.4101C74.3469 68.3142 74.1798 68.7322 74.1798 68.7322C74.1798 68.7322 73.4683 68.5217 73.3754 69.0622L76.378 69.9351C76.378 69.9351 76.4345 69.709 76.1769 69.6056ZM61.0496 65.4002C61.0496 65.4002 61.1333 64.9844 60.7047 64.878C60.2821 64.7732 60.2072 65.0196 60.2072 65.0196C60.2072 65.0196 60.1827 64.3065 59.702 64.2047C59.2196 64.1088 59.0525 64.5268 59.0525 64.5268C59.0525 64.5268 58.341 64.3163 58.248 64.8568L61.2507 65.7297C61.2507 65.7297 61.3071 65.5036 61.0496 65.4002Z" fill="#EBE7E9"/>
<path d="M74.4118 62.0834L63.2775 58.988L61.4465 65.5741L72.5809 68.6695L74.4118 62.0834Z" fill="#EBE7E9"/>
<path d="M73.9865 63.6132L63.1313 59.5137L63.2758 58.9939L74.4118 62.0834L73.9865 63.6132Z" fill="#EDEBEC"/>
<path d="M72.7111 68.7056L61.3168 65.538C61.1042 65.4789 60.9378 65.4135 60.8787 65.6262L73.0467 69.0089C73.0999 68.7946 72.9237 68.7647 72.7111 68.7056Z" fill="#E1D7DB"/>
<path d="M74.9375 62.2293L62.4371 58.7605L64.2278 56.4394L74.6001 59.3229L74.9375 62.2293Z" fill="#EBE7E9"/>
<path d="M74.9379 62.2293L62.4374 58.7606L74.7141 60.2645L74.9379 62.2293Z" fill="#E1D7DB"/>
<path d="M65.9889 61.3896L63.9806 60.8313L63.0315 64.2454L65.0398 64.8037L65.9889 61.3896Z" fill="#EBE7E9"/>
<path d="M65.8249 61.4527L64.0824 60.9683L63.1875 64.1875L64.93 64.6719L65.8249 61.4527Z" fill="#E1D7DB"/>
<path d="M65.3044 63.3251L63.1875 64.1875L63.2991 63.7858L64.2736 63.3249L63.4124 63.3782L63.6949 62.3623L65.8249 61.4527L65.5802 62.3328L64.5352 62.7041L65.5047 62.6045L65.3044 63.3251Z" fill="#F6F6F6"/>
<path d="M65.4843 63.0437L63.5469 62.5051L63.5222 62.5937L65.4597 63.1323L65.4843 63.0437Z" fill="#E1D7DB"/>
<path d="M72.8584 63.2993L70.8501 62.741L69.901 66.1551L71.9093 66.7134L72.8584 63.2993Z" fill="#EBE7E9"/>
<path d="M72.7021 63.358L70.9596 62.8735L70.0647 66.0927L71.8072 66.5772L72.7021 63.358Z" fill="#E1D7DB"/>
<path d="M72.1799 65.2363L70.063 66.0986L70.1747 65.697L71.1491 65.2361L70.288 65.2894L70.5704 64.2734L72.7021 63.358L72.4574 64.2381L71.4108 64.6152L72.3803 64.5157L72.1799 65.2363Z" fill="#F6F6F6"/>
<path d="M72.3598 64.9554L70.4224 64.4167L70.3977 64.5054L72.3352 65.044L72.3598 64.9554Z" fill="#E1D7DB"/>
<path d="M69.8359 63.2992L66.5695 62.3911L65.3789 66.6735L68.6454 67.5816L69.8359 63.2992Z" fill="#EBE7E9"/>
<path d="M69.6731 63.3815L66.6665 62.5457L65.5105 66.704L68.517 67.5399L69.6731 63.3815Z" fill="#E1D7DB"/>
<path d="M69.0376 65.6674L65.5745 66.4737L65.7092 65.9893L67.2993 65.5341L65.8471 65.4932L66.1936 64.2468L69.6731 63.3815L69.3742 64.4565L67.6653 64.7896L69.2823 64.7873L69.0376 65.6674Z" fill="#F6F6F6"/>
<path d="M68.2387 62.8869L68.1501 62.8623L66.9678 67.1152L67.0564 67.1398L68.2387 62.8869Z" fill="#E1D7DB"/>
<path d="M69.2685 62.0217C69.1486 62.4528 68.7049 62.6986 68.2796 62.5803C67.8484 62.4605 67.6027 62.0167 67.7209 61.5914C67.8408 61.1602 68.2845 60.9145 68.7098 61.0327C69.1351 61.151 69.3867 61.5964 69.2685 62.0217Z" fill="#EBE7E9"/>
<path d="M69.1326 61.9838C69.0341 62.3382 68.6642 62.5471 68.3098 62.4486C67.9554 62.3501 67.7464 61.9802 67.8449 61.6258C67.9435 61.2714 68.3134 61.0624 68.6678 61.1609C69.0264 61.267 69.2311 61.6293 69.1326 61.9838Z" fill="#F6F6F6"/>
<path d="M69.2503 61.9719L69.2257 62.0605L68.5228 61.8651L68.3274 62.568L68.2388 62.5433L68.4342 61.8404L67.7313 61.645L67.7559 61.5564L68.4588 61.7518L68.6542 61.0489L68.7428 61.0736L68.5474 61.7765L69.2503 61.9719Z" fill="#EBE7E9"/>
<path d="M67.9727 65.1929L67.731 65.1257L67.7195 65.167L67.9613 65.2342L67.9727 65.1929Z" fill="#E1D7DB"/>
<path d="M67.3999 65.0338L67.1581 64.9666L67.1466 65.0078L67.3884 65.075L67.3999 65.0338Z" fill="#E1D7DB"/>
<path d="M62.735 65.3126L63.136 65.4241L63.1803 65.2648L62.7792 65.1534L62.735 65.3126Z" fill="#E1D7DB"/>
<path d="M62.5664 65.0894L62.9674 65.2009L63.0117 65.0417L62.6107 64.9302L62.5664 65.0894Z" fill="#E1D7DB"/>
<path d="M62.4213 64.877L62.8223 64.9885L62.8665 64.8293L62.4655 64.7178L62.4213 64.877Z" fill="#E1D7DB"/>
<path d="M62.8243 64.9911L63.2253 65.1025L63.2696 64.9433L62.8686 64.8318L62.8243 64.9911Z" fill="#E1D7DB"/>
<path d="M66.1345 60.8668L66.5355 60.9783L66.5798 60.819L66.1788 60.7076L66.1345 60.8668Z" fill="#E1D7DB"/>
<path d="M65.958 60.6483L66.359 60.7598L66.4033 60.6005L66.0023 60.4891L65.958 60.6483Z" fill="#E1D7DB"/>
<path d="M65.8144 60.43L66.2155 60.5415L66.2597 60.3823L65.8587 60.2708L65.8144 60.43Z" fill="#E1D7DB"/>
<path d="M66.2236 60.546L66.6246 60.6575L66.6689 60.4982L66.2679 60.3868L66.2236 60.546Z" fill="#E1D7DB"/>
<path d="M71.3869 67.6329L71.788 67.7444L71.8322 67.5852L71.4312 67.4737L71.3869 67.6329Z" fill="#E1D7DB"/>
<path d="M71.2431 67.4144L71.6442 67.5259L71.6884 67.3666L71.2874 67.2552L71.2431 67.4144Z" fill="#E1D7DB"/>
<path d="M71.6521 67.5304L72.0531 67.6418L72.0974 67.4826L71.6964 67.3711L71.6521 67.5304Z" fill="#E1D7DB"/>
<path d="M70.5021 62.091L70.1011 61.9795L70.0568 62.1387L70.4578 62.2502L70.5021 62.091Z" fill="#E1D7DB"/>
<path d="M70.6467 62.3031L70.2457 62.1917L70.2015 62.3509L70.6025 62.4624L70.6467 62.3031Z" fill="#E1D7DB"/>
<path d="M70.2449 62.1916L69.8439 62.0801L69.7996 62.2393L70.2006 62.3508L70.2449 62.1916Z" fill="#E1D7DB"/>
<path d="M84.497 50.7097L60.48 44.033L58.8658 49.8393L82.8829 56.5161L84.497 50.7097Z" fill="#E1D7DB"/>
<path d="M62.4717 46.1392L64.3146 46.6515L64.1603 47.2068L63.0085 46.8866L62.8426 47.4832L63.705 47.7229L63.5556 48.2604L62.6932 48.0207L62.3746 49.1666L61.6835 48.9745L62.4717 46.1392ZM65.4202 50.0451C64.6169 49.8218 64.1287 49.037 64.3652 48.1864C64.6016 47.3358 65.4232 46.9215 66.2265 47.1448C67.0357 47.3698 67.5078 48.1437 67.2713 48.9943C67.0349 49.8449 66.2235 50.2684 65.4202 50.0451ZM65.5959 49.4131C66.0507 49.5395 66.4305 49.2951 66.5684 48.7989C66.708 48.2968 66.5013 47.8958 66.0524 47.771C65.5917 47.6429 65.2136 47.8814 65.074 48.3835C64.9361 48.8796 65.1352 49.285 65.5959 49.4131ZM69.4063 48.067C70.0974 48.2591 70.3342 48.7577 70.1979 49.248C70.0994 49.6024 69.8109 49.8849 69.3377 49.8933L69.6813 51.1979L68.9016 50.9811L68.6082 49.7478L68.4428 49.7018L68.1455 50.7709L67.4545 50.5788L68.2427 47.7435L69.4063 48.067ZM69.2116 48.6301L68.7863 48.5119L68.5909 49.2148L69.0162 49.333C69.2761 49.4053 69.432 49.3023 69.4927 49.0837C69.5502 48.877 69.4656 48.7007 69.2116 48.6301ZM72.3666 51.9762C71.7582 51.8071 71.3635 51.3728 71.5051 50.7949L72.2375 50.9985C72.1945 51.222 72.3067 51.3677 72.4957 51.4203C72.6965 51.4761 72.8544 51.4118 72.9004 51.2464C73.0465 50.7207 71.5501 50.6102 71.841 49.6093C71.9905 49.0718 72.5097 48.8979 73.1063 49.0638C73.7265 49.2362 74.0546 49.6583 73.9347 50.204L73.1904 49.9971C73.2295 49.8107 73.1291 49.6683 72.9476 49.6115C72.7839 49.5596 72.6352 49.6137 72.586 49.7909C72.4497 50.2812 73.9103 50.4518 73.6476 51.3969C73.5103 51.8678 73.0282 52.1601 72.3666 51.9762ZM75.9344 52.3954L74.8771 52.1014L74.5662 52.5559L73.8456 52.3555L75.6616 49.806L76.459 50.0277L76.6986 53.1487L75.9662 52.9451L75.9344 52.3954ZM75.8439 50.6839L75.2064 51.6266L75.9034 51.8204L75.8439 50.6839ZM78.6859 50.6468L78.0471 52.9445L78.9509 53.1957L78.8031 53.7274L77.2082 53.284L77.9964 50.4487L78.6875 50.6408L78.6859 50.6468ZM81.7035 52.0838L80.658 51.7931L80.4987 52.3661L81.4202 52.6223L81.2724 53.1539L80.3509 52.8977L80.1785 53.5179L81.224 53.8086L81.0696 54.3638L79.333 53.881L80.1212 51.0458L81.8578 51.5286L81.7035 52.0838Z" fill="#F6F6F6"/>
<path opacity="0.5" d="M48.0663 47.208L21.9181 51.0608L28.2311 93.906L54.3793 90.0532L48.0663 47.208Z" fill="#E1D7DB"/>
<path d="M38.3882 16.7485L-8 23.5835L2.01282 91.539L48.401 84.7039L38.3882 16.7485Z" fill="#F6F6F6"/>
<path d="M21.4612 68.5137L6.68047 70.6916C6.39105 70.7342 6.19532 70.9976 6.23797 71.287C6.28061 71.5765 6.54398 71.7722 6.83341 71.7295L21.6141 69.5517C21.9036 69.509 22.0993 69.2457 22.0567 68.9563C22.014 68.6668 21.7506 68.4711 21.4612 68.5137Z" fill="#E1D7DB"/>
<path d="M33.5803 67.7887L38.0814 67.1254C38.3708 67.0828 38.5666 66.8194 38.5239 66.53C38.4813 66.2406 38.2179 66.0449 37.9285 66.0875L33.4274 66.7507C33.138 66.7933 32.9422 67.0567 32.9849 67.3461C33.0176 67.637 33.2909 67.8313 33.5803 67.7887ZM24.2688 69.1607L31.1352 68.1489C31.4246 68.1063 31.6203 67.8429 31.5777 67.5535C31.535 67.2641 31.2717 67.0683 30.9822 67.111L24.1158 68.1227C23.8264 68.1654 23.6307 68.4287 23.6733 68.7181C23.706 69.009 23.9793 69.2033 24.2688 69.1607Z" fill="#EBE7E9"/>
<path d="M26.0376 73.275L11.2569 75.4528C10.9675 75.4955 10.7717 75.7588 10.8144 76.0483C10.857 76.3377 11.1204 76.5334 11.4098 76.4908L26.1906 74.3129C26.48 74.2703 26.6757 74.0069 26.6331 73.7175C26.5919 73.438 26.3271 73.2323 26.0376 73.275Z" fill="#E1D7DB"/>
<path d="M35.5586 71.872L28.6922 72.8837C28.4028 72.9264 28.207 73.1897 28.2497 73.4792C28.2923 73.7686 28.5557 73.9643 28.8451 73.9217L35.7115 72.91C36.001 72.8673 36.1967 72.6039 36.154 72.3145C36.1129 72.0351 35.848 71.8294 35.5586 71.872Z" fill="#EBE7E9"/>
<path d="M38.3198 68.7429L23.539 70.9207C23.2496 70.9633 23.0539 71.2267 23.0965 71.5161C23.1392 71.8056 23.4025 72.0013 23.692 71.9586L38.4727 69.7808C38.7621 69.7381 38.9579 69.4748 38.9152 69.1854C38.874 68.9059 38.5992 68.7017 38.3198 68.7429ZM7.22605 74.395L11.7172 73.7333C12.0066 73.6906 12.2023 73.4272 12.1597 73.1378C12.117 72.8484 11.8536 72.6527 11.5642 72.6953L7.07311 73.357C6.78369 73.3997 6.58796 73.6631 6.63061 73.9525C6.66327 74.2434 6.93662 74.4376 7.22605 74.395Z" fill="#E1D7DB"/>
<path d="M21.0287 72.3606C21.3181 72.318 21.5138 72.0546 21.4712 71.7652C21.4285 71.4758 21.1652 71.2801 20.8757 71.3227L14.0093 72.3344C13.7199 72.3771 13.5242 72.6404 13.5668 72.9299C13.6095 73.2193 13.8728 73.415 14.1623 73.3724L21.0287 72.3606Z" fill="#EBE7E9"/>
<path d="M13.3037 79.9336C12.0961 80.1115 11.2622 81.2337 11.4401 82.4413C11.618 83.6489 12.7402 84.4828 13.9478 84.3049C15.1554 84.127 15.9894 83.0048 15.8114 81.7972C15.6335 80.5896 14.5113 79.7556 13.3037 79.9336Z" fill="#E1D7DB"/>
<path d="M20.5197 78.8701C19.3121 79.048 18.4781 80.1702 18.656 81.3778C18.834 82.5854 19.9561 83.4194 21.1637 83.2414C22.3714 83.0635 23.2053 81.9413 23.0274 80.7337C22.8494 79.5261 21.7273 78.6922 20.5197 78.8701Z" fill="#EBE7E9"/>
<path d="M27.7451 77.8054C26.5375 77.9833 25.7036 79.1055 25.8815 80.3131C26.0594 81.5207 27.1816 82.3547 28.3892 82.1767C29.5968 81.9988 30.4308 80.8766 30.2528 79.669C30.0749 78.4614 28.9527 77.6275 27.7451 77.8054Z" fill="#E1D7DB"/>
<path d="M34.9611 76.7424C33.7535 76.9203 32.9195 78.0425 33.0974 79.2501C33.2754 80.4577 34.3975 81.2917 35.6051 81.1137C36.8128 80.9358 37.6467 79.8136 37.4688 78.606C37.2908 77.3984 36.1687 76.5645 34.9611 76.7424Z" fill="#EBE7E9"/>
<path d="M9.46534 65.7852L10.2816 67.4494L10.2587 67.4324L8.64568 66.5892L7.32742 67.8847L7.63895 66.0543L6.00453 65.2041L7.83091 64.935L8.13394 63.1161L8.95868 64.7688L10.7851 64.4997L9.46534 65.7852Z" fill="#FFBF9F"/>
<path d="M16.0123 64.8201L16.8385 66.4829L16.8156 66.4658L15.2027 65.6226L13.8744 66.9196L14.1859 65.0892L12.5515 64.239L14.3779 63.9699L14.6909 62.1495L15.5057 63.8037L17.3321 63.5346L16.0123 64.8201Z" fill="#FFBF9F"/>
<path d="M22.5692 63.8541L23.3855 65.5183L23.3626 65.5012L21.7496 64.658L20.4313 65.9535L20.7428 64.1232L19.1084 63.2729L20.9348 63.0038L21.2378 61.1849L22.0626 62.8377L23.8889 62.5686L22.5692 63.8541Z" fill="#FFBF9F"/>
<path d="M29.1163 62.889L29.9426 64.5517L29.9196 64.5347L28.3067 63.6915L26.9784 64.9885L27.29 63.1581L25.6555 62.3078L27.4819 62.0387L27.7949 60.2184L28.6097 61.8726L30.4361 61.6035L29.1163 62.889Z" fill="#FFBF9F"/>
<path d="M35.6733 61.9232L36.4896 63.5874L36.4667 63.5703L34.8537 62.7271L33.5354 64.0226L33.847 62.1923L32.2125 61.342L34.0389 61.0729L34.3419 59.254L35.1667 60.9068L36.9931 60.6376L35.6733 61.9232Z" fill="#FFBF9F"/>
<path d="M17.5635 57.411L31.0568 55.4229L29.2127 42.9076L15.7194 44.8958L17.5635 57.411Z" fill="#EBE7E9"/>
<path d="M17.5586 57.4127L22.389 56.7009L20.545 44.1857L15.7146 44.8974L17.5586 57.4127Z" fill="#E1D7DB"/>
<path d="M9.90699 58.5411L21.2545 56.8692L18.2358 36.4511L7.40299 41.6161L9.90699 58.5411Z" fill="#EBE7E9"/>
<path opacity="0.25" d="M7.40299 41.6161L7.6618 43.3727L18.4932 38.1976L18.2358 36.4511L7.40299 41.6161Z" fill="#E1D7DB"/>
<path d="M8.97877 58.678L32.2527 55.2488C32.6918 55.184 33.0352 55.0927 33.0985 55.5218L8.24768 59.1834C8.18445 58.7543 8.54962 58.7413 8.97877 58.678Z" fill="#E1D7DB"/>
<path d="M8.60887 51.6649L9.08289 54.8784L14.5519 54.0717L14.0779 50.8581L8.60887 51.6649Z" fill="#E1D7DB"/>
<path d="M8.79953 51.8509L9.21167 54.6453L14.3614 53.8858L13.9492 51.0913L8.79953 51.8509Z" fill="#E1D7DB"/>
<path d="M11.8346 51.4153L14.3296 53.9538L13.6894 54.0379L12.4517 52.9049L13.0377 54.1136L11.405 54.3133L8.82874 51.7766L10.2418 51.6092L11.3988 52.8867L10.6824 51.5545L11.8346 51.4153Z" fill="#F6F6F6"/>
<path d="M11.2809 51.3218L11.7388 54.4255L11.8785 54.4049L11.4207 51.3011L11.2809 51.3218Z" fill="#E1D7DB"/>
<path d="M22.7353 55.6838L29.0828 54.7485L27.824 46.2055L21.4766 47.1407L22.7353 55.6838Z" fill="#E1D7DB"/>
<path d="M22.9588 55.4018L28.7872 54.543L27.5976 46.469L21.7691 47.3277L22.9588 55.4018Z" fill="#EBE7E9"/>
<path d="M22.4206 51.7723L28.7182 54.0972L28.5785 53.1491L25.7169 51.929L28.4373 52.1909L28.0814 49.7757L21.7662 47.3311L22.0736 49.4169L25.2025 50.4446L22.1692 50.0656L22.4206 51.7723Z" fill="#F6F6F6"/>
<path d="M25.7842 54.9918L25.9539 54.9668L24.7392 46.7231L24.5695 46.7481L25.7842 54.9918Z" fill="#E1D7DB"/>
<path d="M24.7415 45.8628L23.973 45.9761L24.0186 46.2855L24.7871 46.1722L24.7415 45.8628Z" fill="#E1D7DB"/>
<path d="M25.115 45.4917L24.3466 45.605L24.3921 45.9144L25.1606 45.8011L25.115 45.4917Z" fill="#F6F6F6"/>
<path d="M25.4288 45.1292L24.6603 45.2424L24.7059 45.5518L25.4743 45.4386L25.4288 45.1292Z" fill="#E1D7DB"/>
<path d="M24.6504 45.2439L23.882 45.3572L23.9275 45.6666L24.696 45.5533L24.6504 45.2439Z" fill="#F6F6F6"/>
<path d="M12.2924 56.5989L11.5239 56.7122L11.5695 57.0215L12.338 56.9083L12.2924 56.5989Z" fill="#EBE7E9"/>
<path d="M12.606 56.2366L11.8375 56.3499L11.8831 56.6592L12.6516 56.546L12.606 56.2366Z" fill="#E1D7DB"/>
<path d="M11.8376 56.3499L11.0691 56.4631L11.1147 56.7725L11.8832 56.6593L11.8376 56.3499Z" fill="#EBE7E9"/>
<path d="M12.1844 48.937L12.9529 48.8237L12.9073 48.5143L12.1388 48.6276L12.1844 48.937Z" fill="#EBE7E9"/>
<path d="M11.8696 49.2988L12.6381 49.1855L12.5925 48.8762L11.824 48.9894L11.8696 49.2988Z" fill="#E1D7DB"/>
<path d="M12.6436 49.1906L13.4121 49.0774L13.3665 48.768L12.598 48.8812L12.6436 49.1906Z" fill="#E1D7DB"/>
<path d="M8.22483 47.7051L19.8518 45.9919L19.8018 45.6526L8.17483 47.3658L8.22483 47.7051Z" fill="#E1D7DB"/>
<path d="M27.5075 43.1566L27.7371 43.1228L27.4797 41.3763L27.2502 41.4101L27.5075 43.1566Z" fill="#E1D7DB"/>
<path d="M27.3838 42.3427L27.5148 41.6402L27.4766 41.3807L27.2471 41.4146L27.3838 42.3427Z" fill="#E1D7DB"/>
<path d="M25.9223 43.391L26.1519 43.3572L25.8945 41.6106L25.665 41.6445L25.9223 43.391Z" fill="#E1D7DB"/>
<path d="M25.807 42.5754L25.9381 41.8729L25.8998 41.6134L25.6703 41.6472L25.807 42.5754Z" fill="#E1D7DB"/>
<path d="M24.3469 43.6239L24.5764 43.5901L24.3191 41.8435L24.0895 41.8774L24.3469 43.6239Z" fill="#E1D7DB"/>
<path d="M24.2201 42.8093L24.3512 42.1068L24.3129 41.8473L24.0834 41.8811L24.2201 42.8093Z" fill="#E1D7DB"/>
<path d="M22.7617 43.858L22.9912 43.8242L22.7339 42.0777L22.5043 42.1115L22.7617 43.858Z" fill="#E1D7DB"/>
<path d="M22.6434 43.0412L22.7744 42.3387L22.7361 42.0792L22.5066 42.113L22.6434 43.0412Z" fill="#E1D7DB"/>
<path d="M21.1763 44.0919L21.4059 44.0581L21.1485 42.3116L20.919 42.3454L21.1763 44.0919Z" fill="#E1D7DB"/>
<path d="M21.0666 43.2739L21.1876 42.5728L21.1494 42.3134L20.9298 42.3457L21.0666 43.2739Z" fill="#E1D7DB"/>
<path d="M19.6014 44.3246L19.8309 44.2908L19.5736 42.5442L19.344 42.5781L19.6014 44.3246Z" fill="#E1D7DB"/>
<path d="M19.4795 43.508L19.612 42.8155L19.5723 42.546L19.3428 42.5798L19.4795 43.508Z" fill="#E1D7DB"/>
<path d="M19.0961 42.7134L27.6991 41.4458L27.6697 41.2462L19.0667 42.5138L19.0961 42.7134Z" fill="#E1D7DB"/>
<path d="M6.29762 42.9897L19.8076 36.54L19.3556 35.5932L5.84562 42.0429L6.29762 42.9897Z" fill="#E1D7DB"/>
<path d="M12.0053 43.3034C12.1258 44.1217 12.8816 44.6834 13.7 44.5628C14.5183 44.4422 15.08 43.6865 14.9594 42.8681C14.8388 42.0497 14.0831 41.4881 13.2647 41.6086C12.4548 41.7178 11.8847 42.485 12.0053 43.3034Z" fill="#E1D7DB"/>
<path d="M12.2152 43.2731C12.3196 43.9817 12.9723 44.4667 13.6809 44.3623C14.3895 44.2579 14.8746 43.6052 14.7701 42.8966C14.6657 42.188 14.013 41.703 13.3044 41.8074C12.5959 41.9118 12.1108 42.5645 12.2152 43.2731Z" fill="#EBE7E9"/>
<path d="M13.6206 44.5807L13.7903 44.5557L13.3535 41.5915L13.1839 41.6165L13.6206 44.5807Z" fill="#E1D7DB"/>
<path d="M11.9896 43.2163L12.0146 43.386L14.9788 42.9492L14.9538 42.7796L11.9896 43.2163Z" fill="#E1D7DB"/>
<path d="M15.7155 57.7098L20.1068 57.0627L18.976 49.3879L14.5847 50.035L15.7155 57.7098Z" fill="#E1D7DB"/>
<path d="M15.9546 57.67L19.8668 57.0935L18.7683 49.6383L14.8561 50.2147L15.9546 57.67Z" fill="#EBE7E9"/>
<path d="M18.4086 53.496L19.0773 53.3975L19.0611 53.2877L18.3924 53.3862L18.4086 53.496Z" fill="#E1D7DB"/>
<path d="M34.7268 20.5509L-3.6073 26.1992L-2.24118 35.4709L36.0929 29.8226L34.7268 20.5509Z" fill="#E1D7DB"/>
<path d="M0.554965 27.9412L3.49914 27.5074L3.62854 28.3857L1.7822 28.6577L1.92337 29.6158L3.30064 29.4129L3.42711 30.2712L2.04983 30.4741L2.31894 32.3005L1.22111 32.4623L0.554965 27.9412ZM7.20663 31.6313C5.92916 31.8196 4.74006 31.0159 4.54007 29.6585C4.34008 28.3012 5.24683 27.1887 6.5243 27.0005C7.81175 26.8108 8.98089 27.6174 9.18088 28.9748C9.38087 30.3321 8.49408 31.4416 7.20663 31.6313ZM7.0581 30.6233C7.77668 30.5175 8.16929 29.9294 8.05165 29.1309C7.93253 28.3225 7.38846 27.8827 6.66989 27.9885C5.93135 28.0974 5.54725 28.674 5.66637 29.4824C5.78401 30.2808 6.32955 30.7307 7.0581 30.6233ZM11.623 26.3104C12.7309 26.1472 13.3839 26.7036 13.5 27.492C13.5839 28.0609 13.3524 28.6354 12.6847 28.9479L13.9958 30.58L12.7483 30.7638L11.5587 29.1954L11.2992 29.2337L11.5507 30.9403L10.4528 31.102L9.78669 26.581L11.623 26.3104ZM11.6985 27.2374L11.0198 27.3374L11.1845 28.4552L11.8632 28.3552C12.2723 28.2949 12.4411 28.0559 12.3881 27.6966C12.3396 27.3673 12.1076 27.1771 11.6985 27.2374ZM18.2947 29.9976C17.3266 30.1402 16.4875 29.7744 16.3223 28.8606L17.49 28.6886C17.5714 29.0335 17.816 29.1708 18.1253 29.1252C18.4447 29.0781 18.6308 28.8876 18.5911 28.6181C18.4675 27.7798 16.2682 28.5627 16.0529 26.9629C15.9264 26.1046 16.5544 25.5226 17.5026 25.3829C18.4906 25.2373 19.2214 25.6293 19.3992 26.4902L18.2116 26.6652C18.149 26.3787 17.9144 26.24 17.6235 26.2726C17.3625 26.3009 17.1835 26.47 17.2247 26.7495C17.3408 27.5379 19.5235 26.8492 19.747 28.3662C19.8488 29.1262 19.3526 29.8417 18.2947 29.9976ZM23.6289 28.3449L21.9422 28.5934L21.7904 29.4315L20.6327 29.6021L21.6033 24.8399L22.8808 24.6517L25.1837 28.9315L24.016 29.1036L23.6289 28.3449ZM22.4214 25.9634L22.1066 27.7024L23.2244 27.5377L22.4214 25.9634ZM26.4337 24.1281L26.9749 27.8009L28.422 27.5876L28.547 28.436L26.0021 28.811L25.3359 24.2899L26.4337 24.1281ZM31.6346 24.2694L29.9679 24.5149L30.1032 25.4331L31.5802 25.2155L31.7052 26.0638L30.2281 26.2814L30.3737 27.2695L32.0404 27.0239L32.1698 27.9022L29.3953 28.311L28.7292 23.7899L31.5037 23.3811L31.6346 24.2694Z" fill="#F6F6F6"/>
<path d="M81.0585 29.1894L75.8257 29.0045C71.9329 28.8659 68.6638 31.9155 68.5252 35.8083L68.1787 45.5346C68.1324 46.8168 69.1374 47.8911 70.4196 47.9373H70.5467L71.0088 34.9997C71.0665 33.3363 71.8982 32.0079 72.857 32.0426L83.8308 32.4353C84.7896 32.47 85.5173 33.8561 85.4596 35.5195L84.9975 48.4571H85.1246C86.4068 48.5033 87.4811 47.4984 87.5273 46.2162L87.8738 36.4899C88.0009 32.597 84.9513 29.328 81.0585 29.1894Z" fill="#E36247"/>
<path d="M106.344 41.5033L105.94 52.7659L49.3267 50.7444L49.731 39.4818C49.8349 36.49 52.1221 34.1335 54.8251 34.2374L101.631 35.9124C104.335 36.0048 106.448 38.5115 106.344 41.5033Z" fill="#FFBF9F"/>
<path d="M105.882 52.4999L105.293 68.9261C105.189 71.8255 102.914 74.0895 100.211 73.9971L53.5082 72.3337C50.8052 72.2413 48.7028 69.804 48.8068 66.9161L49.3959 50.49L105.882 52.4999Z" fill="#FA9C70"/>
<path d="M105.813 55.4114L49.338 52.7431L49.4073 50.2249L105.882 52.5005L105.813 55.4114Z" fill="#F47118"/>
<path d="M80.8847 62.5461L80.8592 62.468L80.4742 60.9416L80.4507 60.8562L80.0402 59.2518L76.7459 60.0963L77.1746 61.7768L78.2762 61.5015L78.6686 63.0299L78.1678 63.1579L78.5944 64.8457L81.2952 64.1505L80.8847 62.5461Z" fill="white"/>
<path d="M81.3474 64.9219C81.0934 64.9848 80.8387 64.9373 80.6378 64.8101C80.4421 64.6924 80.2982 64.5024 80.2385 64.265L76.9816 52.2331C77.2267 52.2306 77.4799 52.199 77.7339 52.136C77.8286 52.1073 77.9234 52.0786 78.0181 52.0499C78.2803 51.9577 78.5121 51.8334 78.7261 51.6883L82.0116 63.8149C82.1343 64.3064 81.8389 64.7992 81.3474 64.9219Z" fill="white"/>
<path d="M80.6377 64.8099C80.4421 64.6921 80.2982 64.5021 80.2384 64.2648L76.9816 52.2328C77.2266 52.2304 77.4798 52.1987 77.7339 52.1357C77.8286 52.1071 77.9233 52.0784 78.0181 52.0497L81.1885 63.7422C81.3068 64.193 81.0622 64.6448 80.6377 64.8099Z" fill="white"/>
<path d="M79.0963 53.1552C80.7225 52.3567 81.6698 50.8008 81.2997 49.3338C80.8508 47.5846 78.6891 46.6334 76.4745 47.1965C74.2505 47.7649 72.8191 49.6426 73.2628 51.3824C73.6563 52.9348 75.4081 53.8581 77.3494 53.6521C77.5933 53.6257 77.8433 53.5773 78.0953 53.5217C78.4514 53.4321 78.7864 53.3051 79.0963 53.1552ZM74.9339 50.959C74.6864 49.9834 75.5354 48.9202 76.8265 48.5876C78.1175 48.2549 79.3738 48.7796 79.6286 49.7572C79.8046 50.4527 79.425 51.19 78.7209 51.6788C78.4373 51.8754 78.1014 52.0337 77.7287 52.1266C77.4746 52.1895 77.2214 52.2212 76.9764 52.2236C75.987 52.2386 75.1312 51.7472 74.9339 50.959Z" fill="white"/>
<path d="M85.4471 51.0765C85.4716 50.9888 85.1099 50.8167 84.6242 50.6651C84.7485 50.1639 84.7797 49.7707 84.6992 49.7482C84.6115 49.7236 84.4394 50.0854 84.2879 50.5711C83.7867 50.4467 83.3934 50.4156 83.3709 50.496C83.3464 50.5837 83.7081 50.7558 84.1939 50.9074C84.0695 51.4086 84.0384 51.8019 84.1188 51.8243C84.2065 51.8489 84.3786 51.4871 84.5301 51.0014C85.022 51.131 85.4226 51.1642 85.4471 51.0765ZM70.3475 57.6373C70.3721 57.5496 70.0103 57.3775 69.5246 57.2259C69.649 56.7247 69.6801 56.3315 69.5997 56.309C69.512 56.2844 69.3399 56.6462 69.1883 57.1319C68.6871 57.0075 68.2938 56.9764 68.2714 57.0568C68.2468 57.1445 68.6086 57.3166 69.0943 57.4682C68.9699 57.9694 68.9388 58.3627 69.0192 58.3851C69.1069 58.4097 69.279 58.0479 69.4306 57.5622C69.9318 57.6866 70.325 57.7177 70.3475 57.6373ZM84.4994 44.1198C84.5424 43.9663 83.9045 43.654 83.0334 43.3868C83.2568 42.5034 83.3132 41.794 83.167 41.7532C83.0135 41.7102 82.7012 42.348 82.434 43.2192C81.5506 42.9958 80.8412 42.9394 80.8003 43.0856C80.7574 43.2391 81.3952 43.5514 82.2664 43.8186C82.043 44.702 81.9866 45.4114 82.1328 45.4522C82.2863 45.4952 82.5986 44.8573 82.8658 43.9862C83.7492 44.2096 84.4565 44.2733 84.4994 44.1198Z" fill="white"/>
<path d="M89.2849 46.4274C89.3115 46.3324 88.9099 46.1334 88.3511 45.9614C88.4918 45.4017 88.532 44.9479 88.437 44.9214C88.342 44.8948 88.143 45.2963 87.971 45.8551C87.4113 45.7144 86.9575 45.6742 86.9309 45.7693C86.9044 45.8643 87.3059 46.0633 87.8647 46.2353C87.724 46.7949 87.6838 47.2487 87.7789 47.2753C87.8739 47.3019 88.0728 46.9004 88.2448 46.3415C88.8118 46.4843 89.2583 46.5224 89.2849 46.4274Z" fill="white"/>
</g>
<defs>
<clipPath id="clip0_3941_27">
<rect width="156" height="83" fill="white"/>
</clipPath>
</defs>
</svg>