<?xml version="1.0" encoding="UTF-8"?>
<svg fill="none" viewBox="0 0 210 112" xmlns="http://www.w3.org/2000/svg">
<g clip-path="url(#a)">
<path d="m37.598 82.052-0.0516-0.0856-0.997-1.7289-0.0516-0.0942-1.0571-1.823-3.7472 2.1568 1.1087 1.9087 1.2462-0.7189 1.0056 1.7289-0.5673 0.3252 1.1001 1.9173 3.0683-1.7632-1.0571-1.8231z" fill="#E1D7DB"/>
<path d="m38.99 84.799c-0.2836 0.1626-0.6102 0.1969-0.9111 0.1113-0.275-0.0856-0.5242-0.2654-0.6789-0.5307l-8.1133-13.558c0.3008-0.0856 0.6016-0.214 0.8852-0.3766 0.1117-0.0599 0.2149-0.1284 0.318-0.2054 0.2836-0.2054 0.5329-0.4365 0.7391-0.6847l8.1735 13.669c0.3266 0.5478 0.1375 1.2497-0.4125 1.5749z" fill="#E1D7DB"/>
<path d="m38.079 84.902c-0.275-0.0856-0.5242-0.2653-0.6789-0.5306l-8.1133-13.558c0.3008-0.0856 0.6016-0.214 0.8852-0.3766 0.1117-0.06 0.2149-0.1284 0.318-0.2055l7.8899 13.172c0.3008 0.5135 0.1547 1.1554-0.3009 1.4978z" fill="#EBE7E9"/>
<path d="m32.201 71.216c1.7189-1.5235 2.3463-3.7489 1.3923-5.4008-1.143-1.9772-4.1168-2.4051-6.6436-0.9586s-3.6441 4.2282-2.501 6.2053c1.0142 1.7546 3.4722 2.2853 5.7756 1.378 0.2922-0.1112 0.5844-0.2568 0.868-0.4194 0.4126-0.2482 0.7821-0.5135 1.1087-0.8045zm-5.8443-1.2582c-0.636-1.1041 0.0344-2.6876 1.504-3.5349 1.4697-0.8474 3.1886-0.6334 3.8246 0.4707 0.4556 0.7875 0.2407 1.8146-0.4469 2.6533-0.275 0.3339-0.636 0.642-1.0571 0.8816-0.2922 0.1627-0.593 0.291-0.8853 0.3766-1.2204 0.351-2.4322 0.0428-2.9393-0.8473z" fill="#EBE7E9"/>
<path d="m166.93 15.461c0-0.1201-0.533-0.2213-1.226-0.2403-0.019-0.6894-0.12-1.2207-0.241-1.2207s-0.222 0.5313-0.241 1.2207c-0.693 0.019-1.226 0.1202-1.226 0.2403 0 0.1202 0.533 0.2214 1.226 0.2404 0.019 0.6894 0.12 1.2207 0.241 1.2207s0.222-0.5313 0.241-1.2207c0.693-0.0253 1.226-0.1202 1.226-0.2404z" fill="#F6F6F6"/>
<path d="m162.7 21.264c-0.549-3.5381-3.604-6.2643-7.303-6.2643-3.707 0-6.771 2.7262-7.303 6.2643 0 0-0.12 0.7948-0.094 1.0939 0.566 6.6745 7.397 13.631 7.397 13.631s7.389-8.5462 7.389-13.631c0-0.3077-0.086-1.0939-0.086-1.0939zm-7.303 5.0935c-2.042 0-3.699-1.6323-3.699-3.6663 0-2.0254 1.657-3.6834 3.699-3.6834 2.034 0 3.681 1.6494 3.681 3.6834s-1.647 3.6663-3.681 3.6663z" fill="#F6F6F6"/>
<path d="m159.08 22.691c0 2.034-1.647 3.6663-3.681 3.6663-2.042 0-3.699-1.6323-3.699-3.6663 0-2.0254 1.657-3.6833 3.699-3.6833 2.034 0 3.681 1.6494 3.681 3.6833z" fill="#EBE7E9"/>
<path d="m153.45 64.177c-0.654 1.4421-2.356 2.0809-3.804 1.4294s-2.089-2.3465-1.435-3.7886c0.654-1.442 2.356-2.0809 3.804-1.4294 1.442 0.6515 2.09 2.3465 1.435 3.7886z" fill="#E1D7DB"/>
<path d="m153.22 64.069c-0.597 1.3156-2.146 1.8975-3.467 1.303-1.321-0.5946-1.906-2.1378-1.309-3.4534s2.147-1.8975 3.468-1.3029c1.321 0.5945 1.905 2.1441 1.308 3.4533z" fill="#F6F6F6"/>
<path d="m151.27 64.19c-0.185 0.0696-0.407 0.0696-0.667 0l-0.159 0.3542-0.387-0.1707 0.152-0.3416c-0.152-0.0822-0.292-0.1771-0.419-0.2846-0.121-0.1075-0.216-0.2151-0.286-0.3226l0.419-0.3731c0.07 0.1138 0.165 0.215 0.28 0.3162 0.114 0.1012 0.235 0.1771 0.362 0.234 0.241 0.1075 0.393 0.1012 0.451-0.019 0.031-0.0632 0.012-0.1264-0.038-0.1897-0.058-0.0632-0.153-0.1455-0.293-0.2467-0.152-0.1138-0.273-0.215-0.368-0.3099s-0.159-0.2024-0.203-0.3289c-0.038-0.1265-0.026-0.2719 0.044-0.4237 0.083-0.1835 0.223-0.31 0.413-0.3795 0.191-0.0696 0.419-0.0633 0.686 0.0189l0.159-0.3541 0.387 0.1707-0.159 0.3479c0.115 0.0632 0.223 0.1391 0.324 0.2214 0.096 0.0822 0.178 0.1707 0.242 0.2593l-0.407 0.3795c-0.159-0.2087-0.343-0.3605-0.546-0.4554-0.127-0.0569-0.229-0.0822-0.299-0.0696-0.076 0.0127-0.127 0.0443-0.152 0.1075-0.025 0.0569-0.013 0.1202 0.045 0.1834 0.057 0.0633 0.152 0.1392 0.285 0.2404 0.153 0.1138 0.28 0.215 0.375 0.3099s0.159 0.2024 0.203 0.3289c0.038 0.1265 0.026 0.272-0.044 0.4238-0.076 0.1771-0.21 0.3036-0.4 0.3731z" fill="#E1D7DB"/>
<path d="m154.25 65.06v44.141c0 5.3-4.331 9.607-9.647 9.607h-78.595c-5.3222 0-9.6537-4.313-9.6537-9.607v-44.141c0-5.3003 4.3315-9.6138 9.6537-9.6138h78.595c5.322 0 9.647 4.3135 9.647 9.6138z" fill="#3E3E3E"/>
<path d="m66.01 117.42c-4.5538 0-8.2564-3.688-8.2564-8.223v-44.134c0-4.535 3.7026-8.2223 8.2564-8.2223h78.588c4.554 0 8.257 3.6873 8.257 8.2223v44.134c0 4.535-3.703 8.223-8.257 8.223h-78.588z" fill="#EBE7E9"/>
<path d="m152.83 109.85c-0.336 4.225-3.893 7.565-8.224 7.565h-78.595c-4.3886 0-7.9897-3.429-8.2374-7.736 13.998-0.544 29.342-0.847 45.429-0.847 17.707 0 34.518 0.367 49.627 1.018z" fill="#D6C8CE"/>
<path d="m69.344 111.81c0.8574-0.051 2.7309-0.152 2.6992 1.151-0.0064 0.335-0.0127 0.525 0.1397 0.841 0.0826 0.165 0.1715 0.335 0.1524 0.525-0.0063 0.025-0.0127 0.057-0.019 0.095 0.0826 0.038 0.1715 0.088 0.2032 0.101 1.6005 0.645 3.2708 0.582 4.9666 0.449 1.6703-0.133 3.3089-0.278 4.9919-0.278 4.5728 0 9.1392-0.013 13.712 0 4.3566 0.013 8.7326 0.145 13.077-0.259 2.204-0.203 4.427-0.506 6.574-1.057 1.74-0.442 3.353-1.328 5.125-1.663 0.813-0.152 1.658-0.171 2.471-0.019 1.022 0.196 1.956 0.658 2.927 1.018 1.918 0.715 3.944 1.265 6.015 1.044 1.054-0.108 2.159-0.373 3.093-0.873 0.787-0.424 1.435-1.056 2.185-1.543 1.6-1.044 3.512-1.025 5.354-0.905 3.15 0.203 6.186 1.221 9.291 1.746 0.286-0.734 0.477-1.518 0.54-2.334-15.103-0.651-31.914-1.018-49.627-1.018-16.088 0-31.432 0.303-45.43 0.847 0.0826 1.354 0.489 2.619 1.1495 3.719 3.3598-1.163 6.8783-1.372 10.41-1.587z" fill="#E1D7DB"/>
<path d="m71.138 113.03h13.363v-12.346h-13.363v12.346z" fill="#EBE7E9"/>
<path d="m63.552 113.04 11.235-6e-3v-20.139l-11.235 3.447v16.698z" fill="#E1D7DB"/>
<path d="m63.546 96.342 0.0063 1.7267 11.235-3.4471v-1.7266l-11.241 3.447z" fill="#D6C8CE" opacity=".5"/>
<path d="m63.278 106.21 4e-4 3.169 5.4112-1e-3 -5e-4 -3.169-5.4111 1e-3z" fill="#E1D7DB"/>
<path d="m63.43 106.42 4e-4 2.751 5.1063-1e-3 -5e-4 -2.751-5.1062 1e-3z" fill="#EBE7E9"/>
<path d="m65.534 106.44-2.0641 2.802 0.6351-0.013 1.0479-1.271-0.4065 1.252 1.6196-0.044 2.1339-2.809-1.3909 0.038-0.9463 1.405 0.5081-1.392-1.1368 0.032z" fill="#F6F6F6"/>
<path d="m65.914 106.27 4e-4 3.062h0.1398l-5e-4 -3.062h-0.1397z" fill="#E1D7DB"/>
<path d="m76.396 112.1h6.2812v-8.425h-6.2812v8.425z" fill="#E1D7DB"/>
<path d="m76.656 111.86h5.7731v-7.963h-5.7731v7.963z" fill="#EBE7E9"/>
<path d="m82.428 108.28-5.7795 3.144v-0.936l2.6039-1.588-2.6039 0.639v-2.378l5.7795-3.258v2.056l-2.8898 1.442 2.8898-0.803v1.682z" fill="#F6F6F6"/>
<path d="m79.457 111.86h0.1651v-8.134h-0.1651v8.134z" fill="#E1D7DB"/>
<path d="m79.748 102.91h-0.7621v0.304h0.7621v-0.304z" fill="#E1D7DB"/>
<path d="m80.16 102.6h-0.7621v0.303h0.7621v-0.303z" fill="#F6F6F6"/>
<path d="m80.516 102.3h-0.7622v0.304h0.7622v-0.304z" fill="#E1D7DB"/>
<path d="m79.748 102.3h-0.7621v0.304h0.7621v-0.304z" fill="#F6F6F6"/>
<path d="m68.532 111.82h-0.7622v0.304h0.7622v-0.304z" fill="#E1D7DB"/>
<path d="m67.769 111.82h-0.7621v0.304h0.7621v-0.304z" fill="#EBE7E9"/>
<path d="m70.09 104.09h0.7621v-0.304h-0.7621v0.304z" fill="#EBE7E9"/>
<path d="m69.734 104.4h0.7621v-0.303h-0.7621v0.303z" fill="#E1D7DB"/>
<path d="m70.492 104.4h0.7621v-0.303h-0.7621v0.303z" fill="#E1D7DB"/>
<path d="m63.468 102.33h11.514v-0.342h-11.514v0.342z" fill="#D6C8CE"/>
<path d="m82.81 100.69h0.2286v-1.7266h-0.2286v1.7266z" fill="#E1D7DB"/>
<path d="m82.809 99.89 0.2287-0.6578v-0.2657h-0.2287v0.9235z" fill="#E1D7DB"/>
<path d="m81.241 100.69h0.2286v-1.7268h-0.2286v1.7268z" fill="#E1D7DB"/>
<path d="m81.246 99.89 0.2223-0.6578v-0.2657h-0.2223v0.9235z" fill="#E1D7DB"/>
<path d="m79.678 100.69h0.2286v-1.7266h-0.2286v1.7266z" fill="#E1D7DB"/>
<path d="m79.678 99.89 0.2286-0.6578v-0.2657h-0.2286v0.9235z" fill="#E1D7DB"/>
<path d="m78.109 100.7h0.2286v-1.7271h-0.2286v1.7271z" fill="#E1D7DB"/>
<path d="m78.115 99.89 0.2223-0.6578v-0.2657h-0.2223v0.9235z" fill="#E1D7DB"/>
<path d="m76.546 100.7h0.2287v-1.7266h-0.2287v1.7266z" fill="#E1D7DB"/>
<path d="m76.547 99.89 0.2286-0.6578v-0.2657h-0.2286v0.9235z" fill="#E1D7DB"/>
<path d="m74.977 100.7h0.2286v-1.7271h-0.2286v1.7271z" fill="#E1D7DB"/>
<path d="m74.984 99.89 0.2223-0.6578v-0.2657h-0.2223v0.9235z" fill="#E1D7DB"/>
<path d="m74.728 99.065h8.5168v-0.196h-8.5168v0.196z" fill="#E1D7DB"/>
<path d="m62.274 97.51 14.014-4.3034-0.3051-0.9852-14.014 4.3035 0.3051 0.9851z" fill="#D6C8CE"/>
<path d="m67.769 98.625c0 0.8032 0.6542 1.4606 1.4671 1.4606 0.813 0 1.4672-0.6511 1.4672-1.4606 0-0.8033-0.6542-1.4611-1.4672-1.4611-0.8129 0-1.4671 0.6515-1.4671 1.4611z" fill="#E1D7DB"/>
<path d="m67.972 98.625c0 0.6958 0.5653 1.2587 1.2639 1.2587s1.2639-0.5629 1.2639-1.2587c0-0.6957-0.5653-1.2586-1.2639-1.2586s-1.2639 0.5629-1.2639 1.2586z" fill="#EBE7E9"/>
<path d="m69.146 100.08h0.1715v-2.9221h-0.1715v2.9221z" fill="#E1D7DB"/>
<path d="m67.767 98.539 1e-4 0.1708 2.9342-0.0014-1e-4 -0.1708-2.9342 0.0014z" fill="#E1D7DB"/>
<path d="m69.309 113.06h4.3441v-7.565h-4.3441v7.565z" fill="#E1D7DB"/>
<path d="m69.538 113.06h3.8806v-7.356h-3.8806v7.356z" fill="#EBE7E9"/>
<path d="m72.513 109.38h0.6605v-0.107h-0.6605v0.107z" fill="#E1D7DB"/>
<path d="m139.47 100.69h-13.363v12.346h13.363v-12.346z" fill="#EBE7E9"/>
<path d="m147.06 113.04-11.242-6e-3 7e-3 -20.139 11.235 3.447v16.698z" fill="#F6F6F6"/>
<path d="m147.06 96.342v1.7267l-11.242-3.4471 7e-3 -1.7266 11.235 3.447z" fill="#E1D7DB" opacity=".25"/>
<path d="m141.92 106.21-1e-3 3.169 5.411 1e-3 1e-3 -3.169-5.411-1e-3z" fill="#E1D7DB"/>
<path d="m142.07 106.42v2.751l5.106 1e-3v-2.751l-5.106-1e-3z" fill="#E1D7DB"/>
<path d="m145.08 106.44 2.058 2.802-0.635-0.013-1.042-1.271 0.4 1.252-1.613-0.044-2.14-2.809 1.397 0.038 0.94 1.405-0.508-1.392 1.143 0.032z" fill="#F6F6F6"/>
<path d="m144.55 106.27v3.061h0.14v-3.061h-0.14z" fill="#E1D7DB"/>
<path d="m134.21 103.67h-6.281v8.425h6.281v-8.425z" fill="#E1D7DB"/>
<path d="m133.96 103.9h-5.773v7.963h5.773v-7.963z" fill="#EBE7E9"/>
<path d="m128.19 108.28 5.773 3.144v-0.936l-2.604-1.588 2.604 0.639v-2.378l-5.773-3.258v2.056l2.884 1.442-2.884-0.803v1.682z" fill="#F6F6F6"/>
<path d="m131.15 103.73h-0.165v8.133h0.165v-8.133z" fill="#E1D7DB"/>
<path d="m130.86 103.21h0.762v-0.303h-0.762v0.303z" fill="#E1D7DB"/>
<path d="m130.46 102.91h0.762v-0.303h-0.762v0.303z" fill="#F6F6F6"/>
<path d="m130.1 102.6h0.762v-0.303h-0.762v0.303z" fill="#E1D7DB"/>
<path d="m130.86 102.61h0.762v-0.304h-0.762v0.304z" fill="#F6F6F6"/>
<path d="m144.47 111.8h0.762v-0.303h-0.762v0.303z" fill="#EBE7E9"/>
<path d="m144.11 111.5h0.762v-0.303h-0.762v0.303z" fill="#E1D7DB"/>
<path d="m144.88 111.5h0.763v-0.303h-0.763v0.303z" fill="#EBE7E9"/>
<path d="m143.48 103.79h-0.762v0.304h0.762v-0.304z" fill="#EBE7E9"/>
<path d="m143.84 104.1h-0.762v0.303h0.762v-0.303z" fill="#E1D7DB"/>
<path d="m143.07 104.09h-0.762v0.304h0.762v-0.304z" fill="#E1D7DB"/>
<path d="m147.14 102h-11.514v0.341h11.514v-0.341z" fill="#E1D7DB"/>
<path d="m127.8 98.967h-0.229v1.7267h0.229v-1.7267z" fill="#E1D7DB"/>
<path d="m127.8 99.891-0.222-0.6578v-0.2656h0.222v0.9234z" fill="#E1D7DB"/>
<path d="m129.37 98.967h-0.229v1.7267h0.229v-1.7267z" fill="#E1D7DB"/>
<path d="m129.37 99.891-0.229-0.6578v-0.2656h0.229v0.9234z" fill="#E1D7DB"/>
<path d="m130.94 98.967h-0.228v1.7267h0.228v-1.7267z" fill="#E1D7DB"/>
<path d="m130.93 99.891-0.222-0.6578v-0.2656h0.222v0.9234z" fill="#E1D7DB"/>
<path d="m132.5 98.967h-0.229v1.7267h0.229v-1.7267z" fill="#E1D7DB"/>
<path d="m132.5 99.891-0.229-0.6578v-0.2656h0.229v0.9234z" fill="#E1D7DB"/>
<path d="m134.07 98.967h-0.228v1.7267h0.228v-1.7267z" fill="#E1D7DB"/>
<path d="m134.06 99.891-0.222-0.6578v-0.2656h0.222v0.9234z" fill="#E1D7DB"/>
<path d="m135.63 98.967h-0.229v1.7267h0.229v-1.7267z" fill="#E1D7DB"/>
<path d="m135.63 99.891-0.229-0.6578v-0.2656h0.229v0.9234z" fill="#E1D7DB"/>
<path d="m135.88 98.872h-8.517v0.1961h8.517v-0.1961z" fill="#E1D7DB"/>
<path d="m148.63 96.534-14.014-4.3034-0.305 0.9851 14.014 4.3035 0.305-0.9852z" fill="#E1D7DB"/>
<path d="m142.85 98.626c0 0.8033-0.655 1.4614-1.468 1.4614-0.812 0-1.467-0.6518-1.467-1.4614 0-0.8033 0.655-1.461 1.467-1.461 0.813 0 1.468 0.6514 1.468 1.461z" fill="#E1D7DB"/>
<path d="m142.64 98.626c0 0.6957-0.565 1.2586-1.264 1.2586-0.698 0-1.263-0.5629-1.263-1.2586 0-0.6958 0.565-1.2587 1.263-1.2587 0.699 0 1.264 0.5629 1.264 1.2587z" fill="#EBE7E9"/>
<path d="m141.47 97.165h-0.171v2.9224h0.171v-2.9224z" fill="#E1D7DB"/>
<path d="m139.91 98.535v0.1708l2.934 0.0014v-0.1707l-2.934-0.0015z" fill="#E1D7DB"/>
<path d="m141.3 105.49h-4.344v7.565h4.344v-7.565z" fill="#E1D7DB"/>
<path d="m141.07 105.7h-3.881v7.356h3.881v-7.356z" fill="#EBE7E9"/>
<path d="m138.1 109.27h-0.661v0.108h0.661v-0.108z" fill="#E1D7DB"/>
<path d="m59.653 105.54c-0.4636-0.304-0.7748-0.829-0.7748-1.43 0-0.942 0.7685-1.707 1.7148-1.707 0.235 0 0.4573 0.044 0.6605 0.133 0.0445-1.24 1.0606-2.227 2.3118-2.227 1.0924 0 2.007 0.753 2.2483 1.765 0.1143-0.025 0.235-0.044 0.3557-0.044 0.8764 0 1.5877 0.708 1.5877 1.581 0 0.727-0.4954 1.341-1.1686 1.524 0.0254 0.171 0.0445 0.348 0.0445 0.525 0 1.784-1.4481 3.226-3.2391 3.226-0.7812 0-1.4988-0.279-2.0577-0.734-0.1906 0.082-0.4001 0.12-0.6161 0.12-0.8764 0-1.5877-0.708-1.5877-1.581 0.0127-0.455 0.2095-0.86 0.5207-1.151z" fill="#F6F6F6"/>
<path d="m63.787 113.51h-1.1369v-6.325l-1.4607-0.967h-0.8193v-0.082l0.6605-0.083-0.5525-0.986 0.0635-0.051 0.8447 0.955 1.6703 0.867 1.1051-0.551 0.0889 0.108-0.832 0.879 0.3684 6.236z" fill="#D6C8CE"/>
<path d="m61.837 102.15c-0.1079 0.253 0.0762 0.728 0.2604 0.829 0 0-0.3493 0.19-0.4954-0.253-0.1397-0.443 0.235-0.576 0.235-0.576zm-2.153 1.215c-0.0762 0.177 0.0572 0.518 0.1905 0.594 0 0-0.254 0.133-0.3556-0.177-0.1016-0.322 0.1651-0.417 0.1651-0.417zm-0.2604 0.892c0.0635 0.202 0.4065 0.398 0.5653 0.366 0 0-0.1143 0.285-0.4192 0.089-0.3049-0.19-0.1461-0.455-0.1461-0.455zm0.9463-0.196c0.1842 0.17 0.6542 0.158 0.8003 0.031 0 0 0.0508 0.361-0.3747 0.348-0.4256-0.019-0.4256-0.379-0.4256-0.379z" fill="#EDEBEC"/>
<path d="m62.206 113.21s0.0508-0.671 0.7494-0.652 0.6986 0.43 0.6986 0.43 0.343-1.088 1.1241-1.031c0.7812 0.057 0.8638 0.766 0.8638 0.766s1.1876-0.019 1.0987 0.841l-4.9919 0.063c0.0063 6e-3 0.0127-0.367 0.4573-0.417z" fill="#EBE7E9"/>
<path d="m133.15 105.54c-0.464-0.304-0.775-0.829-0.775-1.43 0-0.942 0.768-1.707 1.715-1.707 0.235 0 0.457 0.044 0.66 0.133 0.045-1.24 1.061-2.227 2.312-2.227 1.092 0 2.007 0.753 2.248 1.765 0.115-0.025 0.235-0.044 0.356-0.044 0.876 0 1.588 0.708 1.588 1.581 0 0.727-0.496 1.341-1.169 1.524 0.026 0.171 0.045 0.348 0.045 0.525 0 1.784-1.448 3.226-3.239 3.226-0.782 0-1.499-0.279-2.058-0.734-0.191 0.082-0.4 0.12-0.616 0.12-0.877 0-1.588-0.708-1.588-1.581 0.019-0.455 0.216-0.86 0.521-1.151z" fill="#E1D7DB"/>
<path d="m137.3 113.51h-1.137v-6.325l-1.461-0.967h-0.819v-0.082l0.66-0.083-0.552-0.986 0.063-0.051 0.845 0.955 1.67 0.867 1.105-0.551 0.089 0.108-0.832 0.879 0.369 6.236z" fill="#D6C8CE"/>
<path d="m135.34 102.15c-0.108 0.253 0.076 0.728 0.26 0.829 0 0-0.349 0.19-0.495-0.253-0.134-0.443 0.235-0.576 0.235-0.576zm-2.147 1.215c-0.076 0.177 0.057 0.518 0.19 0.594 0 0-0.254 0.133-0.355-0.177-0.102-0.322 0.165-0.417 0.165-0.417zm-0.261 0.892c0.064 0.202 0.407 0.398 0.566 0.366 0 0-0.115 0.285-0.419 0.089-0.305-0.19-0.147-0.455-0.147-0.455zm0.947-0.196c0.184 0.17 0.654 0.158 0.8 0.031 0 0 0.051 0.361-0.375 0.348-0.425-0.019-0.425-0.379-0.425-0.379z" fill="#EDEBEC"/>
<path d="m149.82 108.7c0.279-0.183 0.464-0.5 0.464-0.86 0-0.569-0.464-1.031-1.036-1.031-0.139 0-0.273 0.025-0.4 0.082-0.025-0.746-0.641-1.347-1.397-1.347-0.66 0-1.213 0.455-1.359 1.069-0.07-0.019-0.14-0.025-0.216-0.025-0.527 0-0.959 0.43-0.959 0.955 0 0.442 0.298 0.809 0.705 0.923-0.019 0.101-0.025 0.209-0.025 0.316 0 1.075 0.876 1.948 1.956 1.948 0.47 0 0.908-0.164 1.244-0.442 0.115 0.05 0.242 0.075 0.375 0.075 0.527 0 0.959-0.43 0.959-0.955-6e-3 -0.291-0.127-0.537-0.311-0.708z" fill="#E1D7DB"/>
<path d="m147.32 113.51h0.686v-3.82l0.882-0.588h0.496v-0.051l-0.4-0.05 0.336-0.589-0.038-0.031-0.514 0.575-1.004 0.525-0.673-0.335-0.051 0.063 0.502 0.532-0.222 3.769z" fill="#D6C8CE"/>
<path d="m148.5 106.64c0.063 0.152-0.045 0.437-0.159 0.5 0 0 0.21 0.114 0.299-0.152s-0.14-0.348-0.14-0.348zm1.302 0.734c0.044 0.107-0.032 0.316-0.114 0.36 0 0 0.152 0.083 0.216-0.107 0.057-0.196-0.102-0.253-0.102-0.253zm0.159 0.538c-0.038 0.12-0.248 0.24-0.343 0.221 0 0 0.07 0.171 0.254 0.057 0.178-0.114 0.089-0.278 0.089-0.278zm-0.578-0.114c-0.115 0.101-0.394 0.095-0.483 0.019 0 0-0.032 0.221 0.222 0.208 0.261-0.012 0.261-0.227 0.261-0.227z" fill="#EDEBEC"/>
<path d="m135.71 113.21s0.051-0.671 0.75-0.652c0.698 0.019 0.698 0.43 0.698 0.43s0.343-1.088 1.124-1.031c0.782 0.057 0.864 0.766 0.864 0.766s1.188-0.019 1.099 0.841l-4.992 0.063c6e-3 6e-3 0.013-0.367 0.457-0.417zm8.879 0s0.051-0.671 0.75-0.652c0.698 0.019 0.698 0.43 0.698 0.43s0.343-1.088 1.124-1.031 0.864 0.766 0.864 0.766 1.188-0.019 1.099 0.841l-4.992 0.063c6e-3 6e-3 0.019-0.367 0.457-0.417z" fill="#EBE7E9"/>
<path d="m57.754 67.002v10.259h17.561c1.9371 0 3.5058-1.5686 3.5058-3.4914v-3.2699c0-1.9291-1.5751-3.4913-3.5058-3.4913h-17.561v-0.0063z" fill="#D6C8CE" opacity=".5"/>
<path d="m79.652 66.293h-28.739c-0.7939 0-1.4354 0.6388-1.4354 1.4294v6.0402c0 0.7906 0.6415 1.4294 1.4354 1.4294h28.739c0.7939 0 1.4354-0.6388 1.4354-1.4294v-6.0402c0-0.7906-0.6415-1.4294-1.4354-1.4294z" fill="#F6F6F6"/>
<path d="m55.226 70.872 0.4573 1.4041-0.019-0.0126-1.175-0.8539-1.2067 0.8665 0.4636-1.4041-1.2003-0.8665h1.4798l0.4636-1.3978 0.4509 1.3978h1.4798l-1.194 0.8665z" fill="#D6C8CE"/>
<path d="m60.529 70.872 0.4636 1.4041-0.019-0.0126-1.1813-0.8539-1.2004 0.8665 0.4573-1.4041-1.194-0.8665h1.4798l0.4573-1.3978 0.4572 1.3978h1.4798l-1.2003 0.8665z" fill="#D6C8CE"/>
<path d="m65.839 70.872 0.4573 1.4041-0.0191-0.0126-1.1749-0.8539-1.2004 0.8665 0.4573-1.4041-1.2004-0.8665h1.4798l0.4637-1.3978 0.4509 1.3978h1.4798l-1.194 0.8665z" fill="#D6C8CE"/>
<path d="m71.142 70.872 0.4636 1.4041-0.0191-0.0126-1.1813-0.8539-1.2003 0.8665 0.4573-1.4041-1.194-0.8665h1.4798l0.4572-1.3978 0.4573 1.3978h1.4798l-1.2003 0.8665z" fill="#D6C8CE"/>
<path d="m76.451 70.872 0.4573 1.4041-0.0127-0.0126-1.1814-0.8539-1.2003 0.8665 0.4573-1.4041-1.194-0.8665h1.4798l0.4572-1.3978 0.451 1.3978h1.4861l-1.2003 0.8665z" fill="#D6C8CE"/>
<path d="m152.9 69.987v10.259h-17.56c-1.938 0-3.506-1.5686-3.506-3.4913v-3.27c0-1.9291 1.575-3.4913 3.506-3.4913h17.56v-0.0063z" fill="#D6C8CE" opacity=".5"/>
<path d="m159.89 67.918h-29.05c-0.705 0-1.283 0.5692-1.283 1.2776v7.7036c0 0.7021 0.572 1.2776 1.283 1.2776h29.05c0.705 0 1.283-0.5692 1.283-1.2776v-7.7036c0-0.7084-0.578-1.2776-1.283-1.2776z" fill="#F6F6F6"/>
<path d="m134.79 71.283h2.045v0.6072h-1.276v0.6577h0.959v0.5946h-0.959v1.2649h-0.763l-6e-3 -3.1244zm4.268 3.1561c-0.889 0-1.613-0.6641-1.613-1.6002 0-0.9424 0.724-1.6002 1.613-1.6002 0.896 0 1.607 0.6578 1.607 1.6002 0 0.9361-0.718 1.6002-1.607 1.6002zm0-0.6958c0.502 0 0.826-0.3605 0.826-0.9108 0-0.5565-0.324-0.9107-0.826-0.9107-0.508 0-0.832 0.3542-0.832 0.9107 0 0.5503 0.324 0.9108 0.832 0.9108zm3.646-2.4603c0.768 0 1.155 0.4427 1.155 0.9866 0 0.3922-0.216 0.759-0.698 0.9045l0.724 1.2397h-0.864l-0.654-1.1828h-0.184v1.1828h-0.762v-3.1245l1.283-0.0063zm-0.045 0.6324h-0.476v0.7717h0.476c0.286 0 0.419-0.1455 0.419-0.3922 0-0.2277-0.133-0.3795-0.419-0.3795zm4.433 2.5237c-0.673 0-1.2-0.3353-1.226-0.9677h0.813c0.026 0.2403 0.172 0.3542 0.388 0.3542 0.222 0 0.368-0.1139 0.368-0.291 0-0.5756-1.569-0.2656-1.562-1.3788 0-0.5945 0.489-0.9234 1.143-0.9234 0.686 0 1.143 0.3415 1.175 0.936h-0.826c-0.012-0.2024-0.159-0.3225-0.362-0.3225-0.184-0.0064-0.324 0.0885-0.324 0.2846 0 0.5439 1.55 0.2973 1.55 1.3472 6e-3 0.5249-0.407 0.9614-1.137 0.9614zm3.9-0.5819h-1.169l-0.19 0.5502h-0.801l1.137-3.1244h0.883l1.137 3.1244h-0.807l-0.19-0.5502zm-0.585-1.733-0.387 1.1448h0.775l-0.388-1.1448zm3.03-0.8412v2.5362h1.003v0.5882h-1.765v-3.1244h0.762zm3.626 0.6135h-1.156v0.6325h1.023v0.5882h-1.023v0.6831h1.156v0.6071h-1.924v-3.1244h1.924v0.6135z" fill="#E1D7DB"/>
<path d="m139.96 86.703h-24.42v30.264h24.42v-30.264z" fill="#FA9C70"/>
<path d="m125.53 88.763v9.0825h15.528v-9.0825h-15.528z" fill="#FFBF9F"/>
<path d="m125.98 89.358v7.8934h14.646v-7.8934h-14.646z" fill="#E36247"/>
<path d="m134.49 89.36 6.122 7.8871h-1.816l-3.093-3.5546 1.245 3.5546h-4.637l-6.344-7.8871h4.001l2.807 3.9467-1.556-3.9467h3.271z" fill="#F6F6F6" opacity=".1"/>
<path d="m133.1 88.915v8.7726h0.406v-8.7726h-0.406z" fill="#FFBF9F"/>
<path d="m120.94 90.846h-1.893v0.7527h1.893v-0.7527z" fill="#DB6F5F" opacity=".31"/>
<path d="m121.83 91.605h-1.893v0.7526h1.893v-0.7526z" fill="#DB6F5F" opacity=".5"/>
<path d="m119.93 91.599h-1.893v0.7527h1.893v-0.7527z" fill="#DB6F5F" opacity=".35"/>
<path d="m137.88 99.676h-21.34v16.602h21.34v-16.602z" fill="#E36247"/>
<path d="m120.71 116.28h-4.167v-16.602h1.391l2.776 16.602z" fill="#F6F6F6" opacity=".1"/>
<path d="m138.21 99.005h-22.006v1.3349h22.006v-1.3349z" fill="#FFBF9F"/>
<path d="m138.21 101.79h-22.006v0.19h22.006v-0.19z" fill="#F6F6F6" opacity=".1"/>
<path d="m138.21 103.15h-22.006v0.19h22.006v-0.19z" fill="#F6F6F6" opacity=".1"/>
<path d="m138.21 104.51h-22.006v0.19h22.006v-0.19z" fill="#F6F6F6" opacity=".1"/>
<path d="m138.21 105.86h-22.006v0.19h22.006v-0.19z" fill="#F6F6F6" opacity=".1"/>
<path d="m138.21 107.22h-22.006v0.19h22.006v-0.19z" fill="#F6F6F6" opacity=".1"/>
<path d="m138.21 108.57h-22.006v0.19h22.006v-0.19z" fill="#F6F6F6" opacity=".1"/>
<path d="m138.21 109.93h-22.006v0.19h22.006v-0.19z" fill="#F6F6F6" opacity=".1"/>
<path d="m138.21 111.28h-22.006v0.189h22.006v-0.189z" fill="#F6F6F6" opacity=".1"/>
<path d="m116.88 116.51v-16.837h-0.674v16.837h0.674z" fill="#FFBF9F"/>
<path d="m138.21 116.51v-16.837h-0.674v16.837h0.674z" fill="#FFBF9F"/>
<path d="m100.16 87.576h-30.974v28.607h30.974v-28.607z" fill="#FA9C70"/>
<path d="m117.74 116.19-26.046-7e-3 0.0064-46.671 26.04 7.9883v38.69z" fill="#FFBF9F"/>
<path d="m117.74 77.5v4.0036l-26.04-7.9883v-4.0036l26.04 7.9883z" fill="#FA9C70" opacity=".5"/>
<path d="m105.82 100.38-1e-3 7.337 12.544 2e-3 1e-3 -7.337-12.544-2e-3z" fill="#FA9C70"/>
<path d="m106.18 100.86-1e-3 6.375 11.832 2e-3 1e-3 -6.376-11.832-1e-3z" fill="#E36247"/>
<path d="m111.04 100.88-4.769 6.508 1.467-0.038 2.419-2.941-0.927 2.903 3.741-0.101 4.954-6.508-3.233 0.082-2.178 3.251 1.168-3.226-2.642 0.07z" fill="#F6F6F6" opacity=".1"/>
<path d="m111.94 100.5-1e-3 7.09h0.324l1e-3 -7.09h-0.324z" fill="#FA9C70"/>
<path d="m87.966 94.483h-14.557v19.531h14.557v-19.531z" fill="#FFBF9F"/>
<path d="m87.375 95.014h-13.382v18.456h13.382v-18.456z" fill="#E36247"/>
<path d="m87.382 105.16-13.388 7.28v-2.163l6.0335-3.681-6.0335 1.48v-5.515l13.388-7.5458v4.7626l-6.694 3.3392 6.694-1.853v3.896z" fill="#F6F6F6" opacity=".1"/>
<path d="m80.878 94.616h-0.3811v18.854h0.3811v-18.854z" fill="#FFBF9F"/>
<path d="m80.145 92.384h1.7593v-0.7021h-1.7593v0.7021z" fill="#FFBF9F"/>
<path d="m79.199 91.683h1.7592v-0.7021h-1.7592v0.7021z" fill="#FFBF9F" opacity=".8"/>
<path d="m78.373 90.978h1.7593v-0.702h-1.7593v0.702z" fill="#FFBF9F"/>
<path d="m80.146 90.982h1.7592v-0.702h-1.7592v0.702z" fill="#FFBF9F" opacity=".8"/>
<path d="m110.91 112.62h1.759v-0.702h-1.759v0.702z" fill="#FA9C70"/>
<path d="m112.68 112.62h1.76v-0.702h-1.76v0.702z" fill="#FA9C70" opacity=".35"/>
<path d="m109.43 94.761h-1.759v0.7021h1.759v-0.7021z" fill="#FA9C70" opacity=".35"/>
<path d="m110.26 95.463h-1.759v0.7021h1.759v-0.7021z" fill="#FA9C70"/>
<path d="m108.49 95.457h-1.759v0.7021h1.759v-0.7021z" fill="#FA9C70" opacity=".35"/>
<path d="m117.93 90.599h-26.681v0.7842h26.681v-0.7842z" fill="#FA9C70"/>
<path d="m73.098 83.585h-0.5208v3.9973h0.5208v-3.9973z" fill="#FFBF9F"/>
<path d="m73.104 85.717-0.5271-1.5243v-0.6072h0.5271v2.1315z" fill="#FA9C70"/>
<path d="m76.731 83.585h-0.5207v3.9973h0.5207v-3.9973z" fill="#FFBF9F"/>
<path d="m76.731 85.717-0.5207-1.5243v-0.6072h0.5207v2.1315z" fill="#FA9C70"/>
<path d="m80.357 83.585h-0.5208v3.9973h0.5208v-3.9973z" fill="#FFBF9F"/>
<path d="m80.364 85.717-0.5272-1.5243v-0.6072h0.5272v2.1315z" fill="#FA9C70"/>
<path d="m83.99 83.585h-0.5208v3.9973h0.5208v-3.9973z" fill="#FFBF9F"/>
<path d="m83.99 85.717-0.5208-1.5243v-0.6072h0.5208v2.1315z" fill="#FA9C70"/>
<path d="m87.616 83.585h-0.5208v3.9973h0.5208v-3.9973z" fill="#FFBF9F"/>
<path d="m87.616 85.717-0.5208-1.5243v-0.6072h0.5208v2.1315z" fill="#FA9C70"/>
<path d="m91.243 83.585h-0.5208v3.9973h0.5208v-3.9973z" fill="#FFBF9F"/>
<path d="m91.249 85.723-0.5271-1.5306v-0.6072h0.5271v2.1378z" fill="#FA9C70"/>
<path d="m91.834 83.351h-19.739v0.4617h19.739v-0.4617z" fill="#FFBF9F"/>
<path d="m121.39 77.931-32.476-9.973-0.7056 2.2786 32.475 9.973 0.706-2.2786z" fill="#FA9C70"/>
<path d="m107.96 82.788c0 1.8658-1.524 3.3838-3.397 3.3838-1.874 0-3.398-1.518-3.398-3.3838s1.524-3.3838 3.398-3.3838c1.879 0 3.404 1.5116 3.397 3.3838z" fill="#FA9C70"/>
<path d="m107.5 82.788c0 1.6065-1.308 2.9157-2.928 2.9157-1.613 0-2.927-1.3029-2.927-2.9157 0-1.6065 1.308-2.9158 2.927-2.9158 1.62 0 2.928 1.3029 2.928 2.9158z" fill="#E36247"/>
<path d="m107.84 82.598h-3.08v-3.0675h-0.375v3.0675h-3.08v0.3732h3.08v3.0675h0.375v-3.0675h3.08v-0.3732z" fill="#FA9C70"/>
<path d="m104.4 98.701h-10.072v17.533h10.072v-17.533z" fill="#FA9C70"/>
<path d="m97.219 107.28h-2.0323v0.607h2.0323v-0.607z" fill="#E36247"/>
<path d="m171.52 50.773c0-0.5591-2.455-1.0223-5.66-1.1022-0.096-3.2106-0.542-5.6705-1.1-5.6705s-1.02 2.4599-1.1 5.6705c-3.205 0.0958-5.66 0.5431-5.66 1.1022 0 0.559 2.455 1.0222 5.66 1.1021 0.096 3.2106 0.542 5.6705 1.1 5.6705s1.02-2.4599 1.1-5.6705c3.205-0.0958 5.66-0.5431 5.66-1.1021z" fill="#F47118"/>
<path d="m176 68.216c0-0.2715-1.212-0.4952-2.774-0.5431-0.048-1.5813-0.271-2.7793-0.542-2.7793s-0.494 1.2139-0.542 2.7793c-1.579 0.0479-2.774 0.2716-2.774 0.5431s1.211 0.4952 2.774 0.5431c0.048 1.5813 0.271 2.7793 0.542 2.7793s0.494-1.2139 0.542-2.7793c1.562-0.0479 2.774-0.2716 2.774-0.5431z" fill="#F47118"/>
<path d="m40 51.5c0-0.375 1.4583-0.6719 3.3472-0.7344 0.0556-2.1406 0.3195-3.7656 0.6528-3.7656s0.5972 1.6406 0.6528 3.7656c1.9028 0.0625 3.3472 0.3594 3.3472 0.7344s-1.4583 0.6719-3.3472 0.7344c-0.0556 2.1406-0.3195 3.7656-0.6528 3.7656s-0.5972-1.6406-0.6528-3.7656c-1.9028-0.0625-3.3472-0.3594-3.3472-0.7344z" fill="#F47118"/>
<path d="m54 35c0-0.2452 1.0962-0.4471 2.5096-0.4904 0.0433-1.4279 0.2452-2.5096 0.4904-2.5096s0.4471 1.0961 0.4904 2.5096c1.4279 0.0433 2.5096 0.2452 2.5096 0.4904s-1.0962 0.4471-2.5096 0.4904c-0.0433 1.4279-0.2452 2.5096-0.4904 2.5096s-0.4471-1.0961-0.4904-2.5096c-1.4134-0.0433-2.5096-0.2452-2.5096-0.4904z" fill="#F47118"/>
<path d="m115.16 20.721h-15.444v3.8603h19.304v-3.8603h-3.86z" fill="#F15B2A"/>
<path d="m95.86 32.305h15.445v-3.8604h-19.305v3.8604h3.8603z" fill="#F15B2A"/>
<path d="m117.1 13h-25.097v11.581h3.8603v-7.7206h23.165v-3.8603h-1.928z" fill="#F15B2A"/>
<path d="m115.16 28.416v7.7206h-23.165v3.8635h27.025v-11.584h-3.86z" fill="#F15B2A"/>
</g>
<defs>
<clipPath id="a">
<rect width="210" height="112" rx="6" fill="#fff"/>
</clipPath>
</defs>
</svg>