<?xml version="1.0" encoding="UTF-8"?>
<svg fill="none" viewBox="0 0 210 112" xmlns="http://www.w3.org/2000/svg">
<g clip-path="url(#b)">
<path d="m144.51 12v-0.5h-79.761v114.46h79.761v-113.96z" fill="#F6F6F6" stroke="url(#a)"/>
<path d="m103.2 97.563h-25.095c-0.4897 0-0.8868-0.3986-0.8868-0.8902s0.3971-0.8901 0.8868-0.8901h25.095c0.49 0 0.887 0.3985 0.887 0.8901s-0.397 0.8902-0.887 0.8902z" fill="#E1D7DB"/>
<path d="m123.52 95.776h7.637c0.489 0 0.887 0.3986 0.887 0.8901 0 0.4916-0.398 0.8902-0.887 0.8902h-7.637c-0.49 0-0.887-0.3986-0.887-0.8902 0-0.4915 0.397-0.8901 0.887-0.8901zm-15.818 0h11.661c0.49 0 0.887 0.3986 0.887 0.8901 0 0.4916-0.397 0.8902-0.887 0.8902h-11.661c-0.489 0-0.886-0.3986-0.886-0.8902 0-0.4915 0.397-0.8901 0.886-0.8901z" fill="#EBE7E9"/>
<path d="m109.64 88.482h-25.102c-0.4897 0-0.8868-0.3986-0.8868-0.8902s0.3971-0.8902 0.8868-0.8902h25.102c0.49 0 0.887 0.3986 0.887 0.8902s-0.397 0.8902-0.887 0.8902z" fill="#E1D7DB"/>
<path d="m125.81 88.482h-11.661c-0.49 0-0.887-0.3986-0.887-0.8902s0.397-0.8902 0.887-0.8902h11.661c0.489 0 0.887 0.3986 0.887 0.8902s-0.398 0.8902-0.887 0.8902z" fill="#EBE7E9"/>
<path d="m131.16 93.019h-25.096c-0.49 0-0.887-0.3986-0.887-0.8902 0-0.4915 0.397-0.8901 0.887-0.8901h25.096c0.489 0 0.887 0.3986 0.887 0.8901 0 0.4916-0.398 0.8902-0.887 0.8902zm-53.057-1.7803h7.6372c0.4898 0 0.8868 0.3986 0.8868 0.8901 0 0.4916-0.397 0.8902-0.8868 0.8902h-7.6372c-0.4897 0-0.8868-0.3986-0.8868-0.8902-0.0066-0.4915 0.3905-0.8901 0.8868-0.8901z" fill="#E1D7DB"/>
<path d="m101.55 91.239c0.489 0 0.886 0.3986 0.886 0.8901 0 0.4916-0.397 0.8902-0.886 0.8902h-11.661c-0.4897 0-0.8868-0.3986-0.8868-0.8902 0-0.4915 0.3971-0.8901 0.8868-0.8901h11.661z" fill="#EBE7E9"/>
<path d="m103.2 42.99-25.095-0.0067c-0.4897 0-0.8868 0.3986-0.8868 0.8902s0.3971 0.8902 0.8868 0.8902l25.095 0.0066c0.49 0 0.887-0.3985 0.887-0.8901 0-0.485-0.397-0.8902-0.887-0.8902z" fill="#E1D7DB"/>
<path d="m123.52 44.784h7.637c0.489 0 0.887-0.3986 0.887-0.8902 0-0.4915-0.398-0.8901-0.887-0.8901h-7.637c-0.49 0-0.887 0.3986-0.887 0.8901-7e-3 0.4916 0.397 0.8902 0.887 0.8902zm-15.818-0.0066 11.661 0.0066c0.49 0 0.887-0.3986 0.887-0.8902 0-0.4915-0.397-0.8901-0.887-0.8901l-11.661-0.0067c-0.489 0-0.886 0.3986-0.886 0.8902s0.397 0.8902 0.886 0.8902z" fill="#EBE7E9"/>
<path d="m109.63 52.071-25.095-0.0066c-0.4897 0-0.8868 0.3986-0.8868 0.8902s0.3971 0.8902 0.8868 0.8902l25.095 0.0066c0.49 0 0.887-0.3986 0.887-0.8902 0-0.4849-0.397-0.8902-0.887-0.8902z" fill="#E1D7DB"/>
<path d="m125.8 52.078-11.661-0.0066c-0.49 0-0.887 0.3986-0.887 0.8902s0.397 0.8901 0.887 0.8901l11.661 0.0067c0.49 0 0.887-0.3986 0.887-0.8902 7e-3 -0.4916-0.391-0.8902-0.887-0.8902z" fill="#EBE7E9"/>
<path d="m131.16 47.541-25.095-0.0066c-0.49 0-0.887 0.3986-0.887 0.8902s0.397 0.8901 0.887 0.8901l25.095 0.0067c0.49 0 0.887-0.3986 0.887-0.8902 7e-3 -0.4916-0.391-0.8902-0.887-0.8902zm-53.057 1.7671h7.6372c0.4898 0 0.8868-0.3986 0.8868-0.8902s-0.397-0.8902-0.8868-0.8902h-7.6372c-0.4897 0-0.8868 0.3986-0.8868 0.8902s0.3971 0.8902 0.8868 0.8902z" fill="#E1D7DB"/>
<path d="m101.55 49.314c0.489 0 0.886-0.3985 0.886-0.8901s-0.397-0.8902-0.886-0.8902l-11.661-0.0067c-0.4897 0-0.8868 0.3986-0.8868 0.8902s0.3971 0.8902 0.8868 0.8902l11.661 0.0066z" fill="#EBE7E9"/>
<path d="m126.7 104.51c-4.083 0-7.392 3.322-7.392 7.42 0 4.099 3.309 7.421 7.392 7.421 4.084 0 7.393-3.322 7.393-7.421-7e-3 -4.092-3.309-7.42-7.393-7.42zm0 0.81c3.183 0 5.837 2.266 6.453 5.282h-2.144c-0.57-1.847-2.284-3.196-4.309-3.196s-3.746 1.342-4.315 3.196h-2.144c0.615-3.016 3.269-5.282 6.459-5.282zm-3.454 5.282c0.536-1.389 1.872-2.379 3.448-2.379 1.575 0 2.912 0.99 3.448 2.379h-6.896zm6.929 2.571c-0.51 1.441-1.873 2.471-3.481 2.471-1.609 0-2.972-1.03-3.482-2.471h6.963zm-3.475 5.374c-3.216 0-5.89-2.312-6.472-5.374h2.131c0.536 1.9 2.276 3.288 4.335 3.288 2.058 0 3.798-1.388 4.334-3.288h2.131c-0.575 3.062-3.249 5.374-6.459 5.374z" fill="#E1D7DB"/>
<path d="m101.02 81.588h15.969v-14.867h-15.969v14.867z" fill="#EBE7E9"/>
<path d="m101.02 81.589h5.711v-14.867h-5.711v14.867z" fill="#E1D7DB"/>
<path d="m91.95 81.593 13.428-0.0067v-24.254l-13.428 4.1519v20.109z" fill="#EBE7E9"/>
<path d="m91.95 61.485v2.0793l13.428-4.1519v-2.0793l-13.428 4.1519z" fill="#E1D7DB" opacity=".25"/>
<path d="m90.858 81.593 27.544-0.0066c0.516 0 0.933-0.0465 0.933 0.465l-29.404 0.0067c-0.0067-0.5182 0.4169-0.4651 0.9265-0.4651z" fill="#E1D7DB"/>
<path d="m91.627 73.372 5e-4 3.8131 6.4658-9e-4 -5e-4 -3.8131-6.4658 9e-4z" fill="#E1D7DB"/>
<path d="m91.812 73.625 5e-4 3.3149 6.1018-9e-4 -4e-4 -3.3149-6.1019 9e-4z" fill="#E1D7DB"/>
<path d="m95.404 73.635 2.462 3.3814-0.7545-0.0199-1.2508-1.528 0.4765 1.508-1.9325-0.0531-2.5479-3.3814 1.6677 0.0465 1.1251 1.6874-0.6089-1.6741 1.3633 0.0332z" fill="#F6F6F6"/>
<path d="m94.777 73.432 6e-4 3.687 0.1655-1e-4 -6e-4 -3.6869h-0.1655z" fill="#E1D7DB"/>
<path d="m107.3 80.459h7.505v-10.151h-7.505v10.151z" fill="#E1D7DB"/>
<path d="m107.6 80.175h6.902v-9.5926h-6.902v9.5926z" fill="#EBE7E9"/>
<path d="m107.61 75.854 6.903 3.7865v-1.1226l-3.117-1.9133 3.117 0.7706v-2.8698l-6.903-3.9194v2.4712l3.448 1.7405-3.448-0.9632v2.0195z" fill="#F6F6F6"/>
<path d="m110.96 80.175h0.199v-9.7985h-0.199v9.7985z" fill="#E1D7DB"/>
<path d="m111.31 69.39h-0.907v0.3654h0.907v-0.3654z" fill="#E1D7DB"/>
<path d="m111.79 69.024h-0.907v0.3654h0.907v-0.3654z" fill="#F6F6F6"/>
<path d="m112.22 68.659h-0.907v0.3654h0.907v-0.3654z" fill="#E1D7DB"/>
<path d="m111.31 68.659h-0.907v0.3654h0.907v-0.3654z" fill="#F6F6F6"/>
<path d="m95.047 79.74h-0.9067v0.3654h0.9067v-0.3654z" fill="#EBE7E9"/>
<path d="m95.471 79.368h-0.9066v0.3654h0.9066v-0.3654z" fill="#E1D7DB"/>
<path d="m94.557 79.374h-0.9067v0.3654h0.9067v-0.3654z" fill="#EBE7E9"/>
<path d="m96.235 70.814h0.9066v-0.3654h-0.9066v0.3654z" fill="#EBE7E9"/>
<path d="m95.807 71.184h0.9066v-0.3654h-0.9066v0.3654z" fill="#E1D7DB"/>
<path d="m96.718 71.178h0.9067v-0.3653h-0.9067v0.3653z" fill="#E1D7DB"/>
<path d="m91.85 68.7h13.759v-0.4052h-13.759v0.4052z" fill="#E1D7DB"/>
<path d="m114.97 66.722h0.271v-2.0793h-0.271v2.0793z" fill="#E1D7DB"/>
<path d="m114.97 65.749 0.272-0.7905v-0.3189h-0.272v1.1094z" fill="#E1D7DB"/>
<path d="m113.1 66.723h0.272v-2.0793h-0.272v2.0793z" fill="#E1D7DB"/>
<path d="m113.09 65.749 0.272-0.7905v-0.3189h-0.272v1.1094z" fill="#E1D7DB"/>
<path d="m111.22 66.723h0.272v-2.0792h-0.272v2.0792z" fill="#E1D7DB"/>
<path d="m111.23 65.756 0.265-0.7971v-0.3189h-0.271l6e-3 1.116z" fill="#E1D7DB"/>
<path d="m109.35 66.724h0.271v-2.0793h-0.271v2.0793z" fill="#E1D7DB"/>
<path d="m109.36 65.756 0.272-0.7971v-0.3189l-0.272 0.0066v1.1094z" fill="#E1D7DB"/>
<path d="m107.48 66.718h0.271v-2.0793h-0.271v2.0793z" fill="#E1D7DB"/>
<path d="m107.48 65.756 0.272-0.7972v-0.3122h-0.272v1.1094z" fill="#E1D7DB"/>
<path d="m105.61 66.718h0.272v-2.0793h-0.272v2.0793z" fill="#E1D7DB"/>
<path d="m105.61 65.756 0.272-0.7972v-0.3122h-0.272v1.1094z" fill="#E1D7DB"/>
<path d="m105.31 64.766h10.179v-0.2392h-10.179v0.2392z" fill="#E1D7DB"/>
<path d="m90.426 62.888 16.746-5.1836-0.363-1.1808-16.746 5.1836 0.3627 1.1808z" fill="#E1D7DB"/>
<path d="m96.986 64.228c0 0.9699 0.7876 1.7604 1.7538 1.7604 0.9663 0 1.7541-0.7905 1.7541-1.7604s-0.7878-1.7604-1.7541-1.7604c-0.9662 0-1.7538 0.7905-1.7538 1.7604z" fill="#E1D7DB"/>
<path d="m97.231 64.228c0 0.837 0.6751 1.5146 1.5089 1.5146 0.8339 0 1.5091-0.6776 1.5091-1.5146s-0.6752-1.5146-1.5091-1.5146c-0.8338 0-1.5089 0.6776-1.5089 1.5146z" fill="#EBE7E9"/>
<path d="m98.642 65.99h0.1985v-3.5142h-0.1985v3.5142z" fill="#E1D7DB"/>
<path d="m96.986 64.13 1e-4 0.1993 3.5006-7e-4v-0.1993l-3.5007 7e-4z" fill="#E1D7DB"/>
<path d="m98.831 81.613h5.195v-9.1143h-5.195v9.1143z" fill="#E1D7DB"/>
<path d="m99.109 81.61h4.633v-8.8552h-4.633v8.8552z" fill="#EBE7E9"/>
<path d="m102.67 77.183h0.788v-0.1262h-0.788v0.1262z" fill="#E1D7DB"/>
<path d="m137.18 17.793h-65.102v18.986h65.102v-18.986z" fill="#E36247"/>
<path d="m82.272 29.695 2.096-5.96h1.168l2.096 5.96h-1.008l-0.456-1.336h-2.424l-0.464 1.336h-1.008zm1.744-2.176h1.864l-1.056-3.12h0.264l-1.072 3.12zm6.1668 3.936c-0.3147 0-0.6053-0.0507-0.872-0.152-0.2667-0.1014-0.496-0.2427-0.688-0.424-0.192-0.176-0.336-0.384-0.432-0.624l0.832-0.344c0.0747 0.2026 0.2107 0.3706 0.408 0.504 0.2027 0.1333 0.4507 0.2 0.744 0.2 0.2293 0 0.4347-0.0454 0.616-0.136 0.1813-0.0854 0.3253-0.2134 0.432-0.384 0.1067-0.1654 0.16-0.3654 0.16-0.6v-0.976l0.16 0.184c-0.1493 0.2773-0.3573 0.488-0.624 0.632-0.2613 0.144-0.5573 0.216-0.888 0.216-0.4 0-0.76-0.0934-1.08-0.28-0.32-0.1867-0.5733-0.4427-0.76-0.768-0.1813-0.3254-0.272-0.6907-0.272-1.096 0-0.4107 0.0907-0.776 0.272-1.096 0.1867-0.32 0.4373-0.5734 0.752-0.76 0.3147-0.1867 0.6747-0.28 1.08-0.28 0.3307 0 0.624 0.072 0.88 0.216 0.2613 0.1386 0.4747 0.3413 0.64 0.608l-0.12 0.224v-0.952h0.856v4.128c0 0.3733-0.0907 0.7066-0.272 1-0.176 0.2986-0.4213 0.5333-0.736 0.704-0.3147 0.1706-0.6773 0.256-1.088 0.256zm-0.048-2.744c0.24 0 0.4533-0.056 0.64-0.168 0.1867-0.1174 0.3333-0.272 0.44-0.464 0.112-0.1974 0.168-0.4187 0.168-0.664 0-0.2454-0.056-0.4667-0.168-0.664-0.112-0.1974-0.2613-0.352-0.448-0.464-0.1867-0.1174-0.3973-0.176-0.632-0.176-0.2453 0-0.464 0.0586-0.656 0.176-0.192 0.112-0.344 0.2666-0.456 0.464-0.1067 0.192-0.16 0.4133-0.16 0.664 0 0.24 0.0533 0.4586 0.16 0.656 0.112 0.1973 0.264 0.3546 0.456 0.472 0.192 0.112 0.4107 0.168 0.656 0.168zm3.2022 0.984v-4.328h0.864v0.872l-0.08-0.128c0.096-0.2827 0.2506-0.4854 0.464-0.608 0.2133-0.128 0.4693-0.192 0.768-0.192h0.264v0.824h-0.376c-0.2987 0-0.5414 0.0933-0.728 0.28-0.1814 0.1813-0.272 0.4426-0.272 0.784v2.496h-0.904zm4.9304 0.096c-0.432 0-0.816-0.0987-1.152-0.296-0.3306-0.2027-0.5893-0.4747-0.776-0.816-0.1866-0.3467-0.28-0.7334-0.28-1.16 0-0.4374 0.0934-0.824 0.28-1.16 0.192-0.336 0.448-0.6 0.768-0.792 0.32-0.1974 0.6827-0.296 1.088-0.296 0.3254 0 0.616 0.056 0.872 0.168s0.472 0.2666 0.648 0.464c0.176 0.192 0.3098 0.4133 0.3998 0.664 0.096 0.2506 0.144 0.5173 0.144 0.8 0 0.0693-2e-3 0.1413-8e-3 0.216-5e-3 0.0746-0.016 0.144-0.032 0.208h-3.4478v-0.72h2.936l-0.432 0.328c0.0534-0.2614 0.0347-0.4934-0.056-0.696-0.0853-0.208-0.2186-0.3707-0.4-0.488-0.176-0.1227-0.384-0.184-0.624-0.184s-0.4533 0.0613-0.64 0.184c-0.1866 0.1173-0.3306 0.288-0.432 0.512-0.1013 0.2186-0.1413 0.4853-0.12 0.8-0.0266 0.2933 0.0134 0.5493 0.12 0.768 0.112 0.2186 0.2667 0.3893 0.464 0.512 0.2027 0.1226 0.432 0.184 0.688 0.184 0.2614 0 0.4827-0.0587 0.664-0.176 0.1867-0.1174 0.3334-0.2694 0.44-0.456l0.7358 0.36c-0.085 0.2026-0.2184 0.3866-0.3998 0.552-0.176 0.16-0.3893 0.288-0.64 0.384-0.2453 0.0906-0.5146 0.136-0.808 0.136zm4.9058 0c-0.432 0-0.816-0.0987-1.152-0.296-0.33-0.2027-0.589-0.4747-0.776-0.816-0.186-0.3467-0.28-0.7334-0.28-1.16 0-0.4374 0.094-0.824 0.28-1.16 0.192-0.336 0.448-0.6 0.768-0.792 0.32-0.1974 0.683-0.296 1.088-0.296 0.326 0 0.616 0.056 0.872 0.168s0.472 0.2666 0.648 0.464c0.176 0.192 0.31 0.4133 0.4 0.664 0.096 0.2506 0.144 0.5173 0.144 0.8 0 0.0693-2e-3 0.1413-8e-3 0.216-5e-3 0.0746-0.016 0.144-0.032 0.208h-3.448v-0.72h2.936l-0.432 0.328c0.054-0.2614 0.035-0.4934-0.056-0.696-0.085-0.208-0.218-0.3707-0.4-0.488-0.176-0.1227-0.384-0.184-0.624-0.184s-0.453 0.0613-0.64 0.184c-0.186 0.1173-0.33 0.288-0.432 0.512-0.101 0.2186-0.141 0.4853-0.12 0.8-0.026 0.2933 0.014 0.5493 0.12 0.768 0.112 0.2186 0.267 0.3893 0.464 0.512 0.203 0.1226 0.432 0.184 0.688 0.184 0.262 0 0.483-0.0587 0.664-0.176 0.187-0.1174 0.334-0.2694 0.44-0.456l0.736 0.36c-0.085 0.2026-0.218 0.3866-0.4 0.552-0.176 0.16-0.389 0.288-0.64 0.384-0.245 0.0906-0.514 0.136-0.808 0.136zm2.875-0.096v-4.328h0.864v0.936l-0.112-0.144c0.09-0.2934 0.256-0.5147 0.496-0.664 0.24-0.1494 0.514-0.224 0.824-0.224 0.346 0 0.653 0.0933 0.92 0.28 0.272 0.1813 0.453 0.424 0.544 0.728l-0.256 0.024c0.128-0.3467 0.322-0.6054 0.584-0.776 0.266-0.1707 0.57-0.256 0.912-0.256 0.298 0 0.568 0.0693 0.808 0.208 0.245 0.1386 0.44 0.3306 0.584 0.576 0.144 0.2453 0.216 0.5253 0.216 0.84v2.8h-0.904v-2.552c0-0.2187-0.04-0.4027-0.12-0.552-0.075-0.1547-0.182-0.272-0.32-0.352-0.134-0.0854-0.291-0.128-0.472-0.128-0.182 0-0.342 0.0426-0.48 0.128-0.139 0.08-0.248 0.1973-0.328 0.352-0.08 0.1546-0.12 0.3386-0.12 0.552v2.552h-0.896v-2.552c0-0.2187-0.04-0.4027-0.12-0.552-0.075-0.1547-0.182-0.272-0.32-0.352-0.134-0.0854-0.294-0.128-0.48-0.128-0.182 0-0.342 0.0426-0.48 0.128-0.139 0.08-0.248 0.1973-0.328 0.352-0.075 0.1546-0.112 0.3386-0.112 0.552v2.552h-0.904zm9.383 0.096c-0.432 0-0.816-0.0987-1.152-0.296-0.33-0.2027-0.589-0.4747-0.776-0.816-0.186-0.3467-0.28-0.7334-0.28-1.16 0-0.4374 0.094-0.824 0.28-1.16 0.192-0.336 0.448-0.6 0.768-0.792 0.32-0.1974 0.683-0.296 1.088-0.296 0.326 0 0.616 0.056 0.872 0.168s0.472 0.2666 0.648 0.464c0.176 0.192 0.31 0.4133 0.4 0.664 0.096 0.2506 0.144 0.5173 0.144 0.8 0 0.0693-2e-3 0.1413-8e-3 0.216-5e-3 0.0746-0.016 0.144-0.032 0.208h-3.448v-0.72h2.936l-0.432 0.328c0.054-0.2614 0.035-0.4934-0.056-0.696-0.085-0.208-0.218-0.3707-0.4-0.488-0.176-0.1227-0.384-0.184-0.624-0.184s-0.453 0.0613-0.64 0.184c-0.186 0.1173-0.33 0.288-0.432 0.512-0.101 0.2186-0.141 0.4853-0.12 0.8-0.026 0.2933 0.014 0.5493 0.12 0.768 0.112 0.2186 0.267 0.3893 0.464 0.512 0.203 0.1226 0.432 0.184 0.688 0.184 0.262 0 0.483-0.0587 0.664-0.176 0.187-0.1174 0.334-0.2694 0.44-0.456l0.736 0.36c-0.085 0.2026-0.218 0.3866-0.4 0.552-0.176 0.16-0.389 0.288-0.64 0.384-0.245 0.0906-0.514 0.136-0.808 0.136zm2.875-0.096v-4.328h0.864v0.848l-0.104-0.112c0.106-0.272 0.277-0.4774 0.512-0.616 0.234-0.144 0.506-0.216 0.816-0.216 0.32 0 0.602 0.0693 0.848 0.208 0.245 0.1386 0.437 0.3306 0.576 0.576 0.138 0.2453 0.208 0.528 0.208 0.848v2.792h-0.896v-2.552c0-0.2187-0.04-0.4027-0.12-0.552-0.08-0.1547-0.195-0.272-0.344-0.352-0.144-0.0854-0.31-0.128-0.496-0.128-0.187 0-0.355 0.0426-0.504 0.128-0.144 0.08-0.256 0.1973-0.336 0.352-0.08 0.1546-0.12 0.3386-0.12 0.552v2.552h-0.904zm6.559 0.048c-0.453 0-0.805-0.128-1.056-0.384s-0.376-0.616-0.376-1.08v-2.096h-0.76v-0.816h0.12c0.203 0 0.36-0.0587 0.472-0.176 0.112-0.1174 0.168-0.2774 0.168-0.48v-0.336h0.904v0.992h0.984v0.816h-0.984v2.056c0 0.1493 0.024 0.2773 0.072 0.384 0.048 0.1013 0.125 0.1813 0.232 0.24 0.107 0.0533 0.245 0.08 0.416 0.08 0.043 0 0.091-0.0027 0.144-8e-3 0.053-0.0054 0.104-0.0107 0.152-0.016v0.776c-0.075 0.0106-0.157 0.0213-0.248 0.032-0.091 0.0106-0.171 0.016-0.24 0.016z" fill="#fff" opacity=".7"/>
<path d="m188.46 20.824c0-0.4865-2.1-0.8784-4.86-0.946-0.081-2.7568-0.471-4.8784-0.943-4.8784-0.484 0-0.875 2.1081-0.955 4.8784-2.747 0.0811-4.86 0.473-4.86 0.946 0 0.4865 2.1 0.8783 4.86 0.9594 0.08 2.7568 0.471 4.8784 0.955 4.8784 0.485 0 0.875-2.1081 0.943-4.8784 2.76-0.0811 4.86-0.4729 4.86-0.9594z" fill="#F47118"/>
<path d="m168.71 42.135c0-0.2297-1.036-0.4324-2.383-0.4729-0.04-1.3514-0.229-2.3919-0.471-2.3919-0.229 0-0.431 1.0405-0.471 2.3919-1.346 0.0405-2.383 0.2297-2.383 0.4729 0 0.2298 1.037 0.4325 2.383 0.473 0.04 1.3514 0.229 2.3919 0.471 2.3919 0.229 0 0.431-1.0405 0.471-2.3919 1.347-0.0405 2.383-0.2297 2.383-0.473z" fill="#F47118"/>
<path d="m40.373 89.919-0.0603-0.111-1.2063-2.0989-0.0703-0.111-1.2667-2.2098-4.5035 2.6135 1.3269 2.3107 1.5079-0.8678 1.2063 2.0989-0.6936 0.3935 1.337 2.3209 3.6893-2.1292-1.2667-2.2098z" fill="#E1D7DB"/>
<path d="m42.042 93.239c-0.3417 0.2018-0.7438 0.2321-1.0957 0.1312-0.3317-0.1009-0.6232-0.3229-0.8142-0.6458l-9.7611-16.458c0.3619-0.1009 0.7238-0.2522 1.0756-0.4541 0.1307-0.0807 0.2614-0.1614 0.382-0.2421 0.3418-0.2422 0.6434-0.5248 0.8947-0.8275l9.8314 16.579c0.382 0.6761 0.1508 1.5338-0.5127 1.9172z" fill="#E1D7DB"/>
<path d="m40.946 93.37c-0.3317-0.1009-0.6232-0.3229-0.8142-0.6458l-9.7611-16.458c0.3619-0.1009 0.7238-0.2522 1.0756-0.4541 0.1307-0.0807 0.2614-0.1614 0.382-0.2421l9.4897 15.984c0.3518 0.6155 0.1809 1.3925-0.372 1.8163z" fill="#EBE7E9"/>
<path d="m33.869 76.761c2.0709-1.8566 2.8248-4.5509 1.6688-6.5589-1.3772-2.4016-4.956-2.9162-7.9918-1.1604-3.0359 1.7558-4.383 5.126-3.0058 7.5276 1.2264 2.1292 4.1819 2.775 6.9564 1.665 0.3519-0.1413 0.7037-0.3128 1.0455-0.5045 0.4825-0.2927 0.9349-0.6156 1.3269-0.9688zm-7.0368-1.5236c-0.774-1.3421 0.0503-3.2593 1.8195-4.2886 1.7693-1.0292 3.8401-0.7669 4.6041 0.5752 0.5529 0.9586 0.2915 2.2098-0.5428 3.2189-0.3318 0.4036-0.764 0.777-1.2767 1.0696-0.3518 0.2018-0.7137 0.3532-1.0756 0.4541-1.4576 0.4238-2.9153 0.0505-3.5285-1.0292z" fill="#EBE7E9"/>
<path d="m29 28.5c0-0.3656 1.6313-0.675 3.7688-0.7312 0.0562-2.1375 0.3656-3.7688 0.7312-3.7688s0.675 1.6313 0.7313 3.7688c2.1375 0.0562 3.7687 0.3656 3.7687 0.7312s-1.6312 0.675-3.7687 0.7312c-0.0563 2.1375-0.3657 3.7688-0.7313 3.7688s-0.675-1.6313-0.7312-3.7688c-2.1375-0.0421-3.7688-0.3515-3.7688-0.7312z" fill="#F47118"/>
<path d="m46 41c0-0.3273 1.2727-0.6 2.9273-0.6546 0.0477-1.8909 0.2863-3.3454 0.5727-3.3454s0.525 1.4545 0.5727 3.3454c1.6546 0.0546 2.9273 0.3273 2.9273 0.6546s-1.2727 0.6-2.9273 0.6545c-0.0477 1.891-0.2863 3.3455-0.5727 3.3455s-0.525-1.4545-0.5727-3.3455c-1.6546-0.0363-2.9273-0.309-2.9273-0.6545z" fill="#F47118"/>
</g>
<defs>
<linearGradient id="a" x1="104.63" x2="104.63" y1="12" y2="125.46" gradientUnits="userSpaceOnUse">
<stop stop-color="#E36247" offset="0"/>
<stop stop-color="#E36247" stop-opacity="0" offset="1"/>
</linearGradient>
<clipPath id="b">
<rect width="210" height="112" fill="#fff"/>
</clipPath>
</defs>
</svg>