<?xml version="1.0" encoding="UTF-8"?>
<svg fill="none" viewBox="0 0 210 112" xmlns="http://www.w3.org/2000/svg">
<g clip-path="url(#a)">
<path d="m36.178 82.297c-1.6967-1.1198-2.8126-3.0317-2.8126-5.2103 0-3.4507 2.805-6.2386 6.2596-6.2386 0.856 0 1.6662 0.1752 2.4076 0.4799 0.1528-4.5172 3.8674-8.1354 8.4379-8.1354 3.982 0 7.3144 2.7499 8.2086 6.4443 0.4204-0.099 0.8561-0.1524 1.307-0.1524 3.1948 0 5.7934 2.5824 5.7934 5.774 0 2.6585-1.8037 4.8904-4.2572 5.5607 0.107 0.6247 0.1682 1.2645 0.1682 1.9196 0 6.4977-5.289 11.769-11.808 11.769-2.8509 0-5.4724-1.0055-7.5131-2.689-0.6879 0.2895-1.4522 0.4495-2.2471 0.4495-3.1948 0-5.7934-2.5823-5.7934-5.774 0-1.653 0.7184-3.146 1.8496-4.1972z" fill="#EBE7E9"/>
<path d="m51.272 111.37h-4.1501v-23.08l-5.3272-3.5192h-2.9885v-0.3047l2.4152-0.3123-2.033-3.5802 0.2522-0.1904 3.0801 3.4887 6.0839 3.1613 4.0355-2.0187 0.3287 0.4038-3.0496 3.1993 1.3528 22.753z" fill="#E1D7DB"/>
<path d="m44.149 69.896c-0.3821 0.9141 0.2904 2.6509 0.9554 3.0165 0 0-1.284 0.6856-1.7961-0.9141-0.5198-1.6073 0.8407-2.1024 0.8407-2.1024zm-7.8418 4.4333c-0.2751 0.6551 0.2064 1.8968 0.6879 2.1634 0 0-0.9171 0.4951-1.2917-0.6551-0.3745-1.1503 0.6038-1.5083 0.6038-1.5083zm-0.963 3.2603c0.2217 0.7389 1.4828 1.4473 2.056 1.333 0 0-0.428 1.036-1.5286 0.3352-1.093-0.7084-0.5274-1.6682-0.5274-1.6682zm3.4623-0.7161c0.6726 0.617 2.3923 0.579 2.912 0.1143 0 0 0.1987 1.3178-1.3528 1.2645s-1.5592-1.3788-1.5592-1.3788zm19.88 0.6932c0.6726 0.617 2.3922 0.5789 2.912 0.1143 0 0 0.1987 1.3178-1.3528 1.2645-1.5516-0.0534-1.5592-1.3788-1.5592-1.3788z" fill="#EDEBEC"/>
<path d="m37.53 110.18s0.3287-4.456 4.991-4.35c4.6622 0.107 4.6699 2.887 4.6699 2.887s2.2929-7.236 7.5054-6.863c5.2126 0.373 5.7629 5.111 5.7629 5.111s7.9105-0.129 7.3373 5.622l-33.262 0.419c0-8e-3 0.0688-2.521 2.996-2.826z" fill="#EBE7E9"/>
<path d="m57.122 112.39h35.15v-20.727h-35.15v20.727z" fill="#F6F6F6"/>
<path d="m57.119 96.473 35.15-3.1536v-1.653h-35.15v4.8066z" fill="#EDEBEC"/>
<path d="m55.453 91.666h39.461l-3.3476-8.2268-32.758-0.0076-3.3553 8.2344z" fill="#EBE7E9"/>
<path d="m55.453 91.666h39.461l-37.191-5.5607-2.27 5.5607z" fill="#E1D7DB"/>
<path d="m82.383 107.22h6.336v-10.748h-6.336v10.748z" fill="#EBE7E9"/>
<path d="m82.796 106.92h5.503v-10.131h-5.503v10.131z" fill="#E1D7DB"/>
<path d="m82.8 102.68 5.503 4.235v-1.257l-2.484-2.14 2.484 0.861v-3.215l-5.503-4.3877v2.7728l2.7515 1.9429-2.7515-1.082v2.27z" fill="#F6F6F6"/>
<path d="m82.49 101.99h6.1144v-0.282h-6.1144v0.282z" fill="#E1D7DB"/>
<path d="m60.671 107.22h6.3361v-10.748h-6.3361v10.748z" fill="#EBE7E9"/>
<path d="m61.091 106.91h5.503v-10.132h-5.503v10.132z" fill="#E1D7DB"/>
<path d="m61.094 102.67 5.503 4.235v-1.256l-2.484-2.141 2.484 0.869v-3.215l-5.503-4.3877v2.7728l2.7515 1.9429-2.7515-1.082v2.262z" fill="#F6F6F6"/>
<path d="m60.786 101.98h6.1144v-0.282h-6.1144v0.282z" fill="#E1D7DB"/>
<path d="m69.531 112.39h10.318v-13.475h-10.318v13.475z" fill="#EBE7E9"/>
<path d="m69.952 112.39h9.485v-13.094h-9.485v13.094z" fill="#EBE7E9"/>
<path d="m69.944 106.49 9.4927 5.172v-1.539l-4.2802-2.613 4.2802 1.059v-3.915l-9.4927-5.3552v3.3742l4.7463 2.369-4.7463-1.317v2.765z" fill="#F6F6F6"/>
<path d="m74.56 112.39h0.2675v-13.376h-0.2675v13.376z" fill="#E1D7DB"/>
<path d="m72.237 95.665c0 1.3483 1.1006 2.4452 2.4534 2.4452s2.4534-1.0969 2.4534-2.4452-1.1006-2.4452-2.4534-2.4452-2.4458 1.0969-2.4534 2.4452z" fill="#EBE7E9"/>
<path d="m72.665 95.665c0 1.1197 0.9095 2.0186 2.0254 2.0186 1.1235 0 2.0254-0.9065 2.0254-2.0186 0-1.1198-0.9095-2.0186-2.0254-2.0186-1.1159-0.0076-2.0254 0.8988-2.0254 2.0186z" fill="#F6F6F6"/>
<path d="m72.337 95.528v0.2666h2.2164v2.2167h0.2752v-2.2167h2.2165l0.0076-0.2666h-2.2241v-2.209h-0.2752l0.0077 2.209h-2.2241z" fill="#EBE7E9"/>
<path d="m73.451 106.09h0.7567v-0.122h-0.7567v0.122z" fill="#E1D7DB"/>
<path d="m75.277 106.09h0.7567v-0.122h-0.7567v0.122z" fill="#E1D7DB"/>
<path d="m76.209 110.06h-1.2764v0.511h1.2764v-0.511z" fill="#E1D7DB"/>
<path d="m76.889 109.55h-1.2763v0.51h1.2763v-0.51z" fill="#E1D7DB"/>
<path d="m77.485 109.04h-1.2764v0.511h1.2764v-0.511z" fill="#E1D7DB"/>
<path d="m76.209 109.05h-1.2764v0.51h1.2764v-0.51z" fill="#E1D7DB"/>
<path d="m82.38 94.325h-1.2764v0.5104h1.2764v-0.5104z" fill="#E1D7DB"/>
<path d="m83.068 93.822h-1.2764v0.5103h1.2764v-0.5103z" fill="#E1D7DB"/>
<path d="m83.664 93.304h-1.2764v0.5103h1.2764v-0.5103z" fill="#E1D7DB"/>
<path d="m82.38 93.312h-1.2764v0.5103h1.2764v-0.5103z" fill="#E1D7DB"/>
<path d="m61.468 109.81h-1.2764v0.51h1.2764v-0.51z" fill="#E1D7DB"/>
<path d="m62.064 109.3h-1.2764v0.51h1.2764v-0.51z" fill="#E1D7DB"/>
<path d="m60.78 109.3h-1.2764v0.51h1.2764v-0.51z" fill="#E1D7DB"/>
<path d="m68.552 95.352h1.2764v-0.5104h-1.2764v0.5104z" fill="#E1D7DB"/>
<path d="m67.953 95.865h1.2764v-0.5103h-1.2764v0.5103z" fill="#E1D7DB"/>
<path d="m69.238 95.866h1.2764v-0.5104h-1.2764v0.5104z" fill="#E1D7DB"/>
<path d="m157.21 112.93c-0.848-1.043-2.224-1.988-4.532-2.232 0 0-0.65-8.721-9.768-8.508-9.118 0.206-9.134 5.644-9.134 5.644s-4.494-14.153-14.682-13.422-11.266 9.9945-11.266 9.9945-13.054-0.183-14.285 8.531h63.667v-8e-3z" fill="#D6C8CE"/>
<path d="m154.15 57h-0.585v5.4315h0.585v-5.4315z" fill="#D6C8CE"/>
<path d="m184.36 57h-0.584v5.4315h0.584v-5.4315z" fill="#D6C8CE"/>
<path d="m185.24 61.467h-33.315v30.699h33.315v-30.699z" fill="#D6C8CE"/>
<path d="m157.79 70.112h3.033v0.9093h-1.897v0.981h1.417v0.8773h-1.417v1.8823h-1.136v-4.6499zm6.338 4.6898c-1.32 0-2.393-0.989-2.393-2.3848 0-1.3957 1.073-2.3768 2.393-2.3768 1.328 0 2.385 0.9811 2.385 2.3768-8e-3 1.4038-1.065 2.3848-2.385 2.3848zm0-1.0289c0.744 0 1.224-0.5344 1.224-1.3479 0-0.8295-0.488-1.3479-1.224-1.3479-0.76 0-1.232 0.5264-1.232 1.3479-8e-3 0.8135 0.472 1.3479 1.232 1.3479zm5.418-3.6609c1.144 0 1.712 0.654 1.712 1.4596 0 0.5822-0.32 1.1325-1.032 1.3399l1.072 1.8424h-1.28l-0.968-1.7547h-0.272v1.7547h-1.137v-4.6419h1.905zm-0.072 0.9412h-0.704v1.1485h0.704c0.424 0 0.624-0.2154 0.624-0.5823 0-0.3429-0.192-0.5662-0.624-0.5662zm-9.531 12.53c-1.281 0-2.273-0.6301-2.321-1.8265h1.536c0.04 0.4546 0.328 0.6779 0.737 0.6779 0.424 0 0.696-0.2073 0.696-0.5583 0-1.0927-2.969-0.5025-2.953-2.6081 0-1.1246 0.92-1.7467 2.169-1.7467 1.296 0 2.168 0.6381 2.224 1.7707h-1.568c-0.024-0.3829-0.296-0.6062-0.688-0.6142-0.345-0.0079-0.609 0.1675-0.609 0.5424 0 1.0288 2.937 0.5663 2.937 2.5443 0 0.989-0.776 1.8185-2.16 1.8185zm7.386-1.1007h-2.217l-0.352 1.0448h-1.512l2.144-5.918h1.673l2.145 5.918h-1.529l-0.352-1.0448zm-1.112-3.286-0.729 2.1694h1.465l-0.736-2.1694zm5.738-1.5952v4.8094h1.896v1.1166h-3.345v-5.918h1.449v-8e-3zm6.858 1.1565h-2.193v1.1964h1.937v1.1166h-1.937v1.3h2.193v1.1565h-3.633v-5.918h3.641v1.1485h-8e-3z" fill="#fff"/>
<path d="m127.08 19.827h-50.288v91.001h50.288v-91.001z" fill="#FFBF9F"/>
<path d="m76.779 42.254 0.0361 68.592h4.7421v-14.466l45.528-4.8699v-2.0487h-45.528v-15.005l45.528-4.8161v-2.4439h-45.528v-18.869s37.667-3.7918 45.51-4.5645v-1.5454l-50.288 0.0359z" fill="#FA9C70"/>
<path d="m101.5 97.351h-6.3826v13.477h6.3826v-13.477z" fill="#FA9C70"/>
<path d="m108.71 97.333h-6.275v13.477h6.275v-13.477z" fill="#FA9C70"/>
<path d="m102.83 102.98c0.108 0 0.18 0.09 0.18 0.18v1.707c0 0.108-0.09 0.18-0.18 0.18-0.109 0-0.181-0.09-0.181-0.18v-1.707c0-0.108 0.09-0.18 0.181-0.18zm-1.84 0c0.109 0 0.181 0.09 0.199 0.18v1.707c0 0.108-0.09 0.18-0.181 0.18-0.108 0-0.18-0.09-0.18-0.18v-1.707c-0.036-0.108 0.054-0.18 0.162-0.18z" fill="#FFBF9F"/>
<path d="m128.74 89.803-53.588 0.036v-0.5391h-0.595v-1.0783l54.778-0.0359v1.0782h-0.595v0.5391z" fill="#E36247"/>
<path d="m74.561 111.92v-1.078l54.796-0.036v1.078h1.352v1.078l-57.482 0.036v-1.078h1.3343z" fill="#E36247"/>
<path d="m128.73 67.987-53.588 0.0359v-0.5391h-0.595v-1.0782l54.796-0.0359v1.0782h-0.613v0.5391z" fill="#E36247"/>
<path d="m76.797 20.06v20.324h4.7602v-14.053l45.528-4.816v-1.4556h-50.288z" fill="#FA9C70"/>
<path d="m86.966 37.366h-4.634l-0.018-11.537h8.9253l0.018 11.537h-4.2913z" fill="#E36247"/>
<path d="m86.588 26.278h-3.8947v10.62h3.8947v-10.62z" fill="#FA9C70"/>
<path d="m90.879 26.278h-3.8947v10.62h3.8947v-10.62z" fill="#FA9C70"/>
<path d="m90.969 32.981h-8.3843v0.1797h8.3843v-0.1797z" fill="#E36247"/>
<path d="m90.969 28.219h-8.3843v0.1797h8.3843v-0.1797z" fill="#E36247"/>
<path d="m81.377 25.883 5.3371-2.6416c0.0541-0.018 0.1082-0.018 0.1623 0l5.3371 2.6416c0.1803 0.0898 0.1082 0.3414-0.0721 0.3414h-10.656c-0.2164 0.018-0.2885-0.2516-0.1082-0.3414z" fill="#E36247"/>
<path d="m102.08 37.366h-4.6336l-0.0181-11.537h8.9257l0.018 11.537h-4.292z" fill="#E36247"/>
<path d="m101.7 26.278h-3.8951v10.62h3.8951v-10.62z" fill="#FA9C70"/>
<path d="m105.99 26.278h-3.895v10.62h3.895v-10.62z" fill="#FA9C70"/>
<path d="m106.08 32.981h-8.3842v0.1797h8.3842v-0.1797z" fill="#E36247"/>
<path d="m106.08 28.219h-8.3842v0.1797h8.3842v-0.1797z" fill="#E36247"/>
<path d="m96.487 25.883 5.3373-2.6416c0.054-0.018 0.108-0.018 0.162 0l5.337 2.6416c0.181 0.0898 0.108 0.3414-0.072 0.3414h-10.656c-0.2163 0.018-0.2885-0.2516-0.1082-0.3414z" fill="#E36247"/>
<path d="m117.19 37.366h-4.634l-0.018-11.537h8.925l0.018 11.537h-4.291z" fill="#E36247"/>
<path d="m116.81 26.278h-3.894v10.62h3.894v-10.62z" fill="#FA9C70"/>
<path d="m121.1 26.278h-3.895v10.62h3.895v-10.62z" fill="#FA9C70"/>
<path d="m121.19 32.981h-8.384v0.1797h8.384v-0.1797z" fill="#E36247"/>
<path d="m121.19 28.219h-8.384v0.1797h8.384v-0.1797z" fill="#E36247"/>
<path d="m111.6 25.883 5.337-2.6416c0.054-0.018 0.108-0.018 0.162 0l5.337 2.6416c0.18 0.0898 0.108 0.3414-0.072 0.3414h-10.656c-0.235 0.018-0.289-0.2516-0.108-0.3414z" fill="#E36247"/>
<path d="m86.966 60.96h-0.3606l-4.2734 0.018-0.018-11.537 4.2914-0.018h4.6339l0.018 11.537h-4.2913z" fill="#E36247"/>
<path d="m86.588 49.891h-3.8947v10.62h3.8947v-10.62z" fill="#FA9C70"/>
<path d="m90.879 49.891h-3.8947v10.62h3.8947v-10.62z" fill="#FA9C70"/>
<path d="m90.969 56.576h-8.3843v0.1797h8.3843v-0.1797z" fill="#E36247"/>
<path d="m90.969 51.814h-8.3843v0.1797h8.3843v-0.1797z" fill="#E36247"/>
<path d="m81.377 49.495 5.3371-2.6416c0.0541-0.018 0.1082-0.018 0.1623 0l5.3371 2.6416c0.1803 0.0899 0.1082 0.3414-0.0721 0.3414h-10.656c-0.2164 0-0.2885-0.2515-0.1082-0.3414z" fill="#E36247"/>
<path d="m102.08 60.96h-0.36l-4.2736 0.018-0.018-11.537 4.2916-0.018h4.634l0.018 11.537h-4.292z" fill="#E36247"/>
<path d="m101.7 49.891h-3.895v10.62h3.895v-10.62z" fill="#FA9C70"/>
<path d="m105.99 49.891h-3.895v10.62h3.895v-10.62z" fill="#FA9C70"/>
<path d="m106.08 56.576h-8.3841v0.1797h8.3841v-0.1797z" fill="#E36247"/>
<path d="m106.08 51.814h-8.3841v0.1797h8.3841v-0.1797z" fill="#E36247"/>
<path d="m96.487 49.495 5.3373-2.6416c0.054-0.018 0.108-0.018 0.162 0l5.337 2.6416c0.181 0.0899 0.108 0.3414-0.072 0.3414h-10.656c-0.2163 0-0.2885-0.2515-0.1082-0.3414z" fill="#E36247"/>
<path d="m117.19 60.96h-0.361l-4.273 0.018-0.018-11.537 4.273-0.018h4.652l0.018 11.537h-4.291z" fill="#E36247"/>
<path d="m116.81 49.891h-3.894v10.62h3.894v-10.62z" fill="#FA9C70"/>
<path d="m121.1 49.891h-3.895v10.62h3.895v-10.62z" fill="#FA9C70"/>
<path d="m121.19 56.576h-8.384v0.1797h8.384v-0.1797z" fill="#E36247"/>
<path d="m121.19 51.814h-8.384v0.1797h8.384v-0.1797z" fill="#E36247"/>
<path d="m111.6 49.495 5.337-2.6416c0.054-0.018 0.108-0.018 0.162 0l5.337 2.6416c0.18 0.0899 0.108 0.3414-0.072 0.3414h-10.656c-0.235 0-0.289-0.2515-0.108-0.3414z" fill="#E36247"/>
<path d="m86.966 84.574h-4.6339l-0.018-11.537h8.9252l0.018 11.537h-4.2913z" fill="#E36247"/>
<path d="m86.588 73.486h-3.8947v10.62h3.8947v-10.62z" fill="#FA9C70"/>
<path d="m90.879 73.486h-3.8947v10.62h3.8947v-10.62z" fill="#FA9C70"/>
<path d="m90.969 80.188h-8.3843v0.1797h8.3843v-0.1797z" fill="#E36247"/>
<path d="m90.969 75.427h-8.3843v0.1797h8.3843v-0.1797z" fill="#E36247"/>
<path d="m81.377 73.108 5.3371-2.6417c0.0541-0.0179 0.1082-0.0179 0.1623 0l5.3371 2.6417c0.1803 0.0898 0.1082 0.3414-0.0721 0.3414h-10.656c-0.2164 0-0.2885-0.2695-0.1082-0.3414z" fill="#E36247"/>
<path d="m102.08 84.574h-4.6336l-0.018-11.537h8.9256l0.018 11.537h-4.292z" fill="#E36247"/>
<path d="m101.7 73.486h-3.895v10.62h3.895v-10.62z" fill="#FA9C70"/>
<path d="m105.99 73.486h-3.895v10.62h3.895v-10.62z" fill="#FA9C70"/>
<path d="m106.08 80.188h-8.3841v0.1797h8.3841v-0.1797z" fill="#E36247"/>
<path d="m106.08 75.427h-8.3841v0.1797h8.3841v-0.1797z" fill="#E36247"/>
<path d="m96.487 73.108 5.3373-2.6417c0.054-0.0179 0.108-0.0179 0.162 0l5.337 2.6417c0.181 0.0898 0.108 0.3414-0.072 0.3414h-10.656c-0.2163 0-0.2885-0.2695-0.1082-0.3414z" fill="#E36247"/>
<path d="m117.19 84.574h-4.634l-0.018-11.537h8.925l0.018 11.537h-4.291z" fill="#E36247"/>
<path d="m116.81 73.486h-3.894v10.62h3.894v-10.62z" fill="#FA9C70"/>
<path d="m121.1 73.486h-3.895v10.62h3.895v-10.62z" fill="#FA9C70"/>
<path d="m121.19 80.188h-8.384v0.1797h8.384v-0.1797z" fill="#E36247"/>
<path d="m121.19 75.427h-8.384v0.1797h8.384v-0.1797z" fill="#E36247"/>
<path d="m111.6 73.108 5.337-2.6417c0.054-0.0179 0.108-0.0179 0.162 0l5.337 2.6417c0.18 0.0898 0.108 0.3414-0.072 0.3414h-10.656c-0.235 0-0.289-0.2695-0.108-0.3414z" fill="#E36247"/>
<path d="m86.966 108.19h-4.634l-0.018-11.536h4.652l4.2733-0.018 0.018 11.537-4.2913 0.017z" fill="#E36247"/>
<path d="m86.588 97.099h-3.8947v10.62h3.8947v-10.62z" fill="#FA9C70"/>
<path d="m90.879 97.099h-3.8946v10.62h3.8946v-10.62z" fill="#FA9C70"/>
<path d="m90.969 103.78h-8.3843v0.179h8.3843v-0.179z" fill="#E36247"/>
<path d="m90.969 99.022h-8.3843v0.1797h8.3843v-0.1797z" fill="#E36247"/>
<path d="m117.19 108.19h-4.634l-0.018-11.536h4.652l4.273-0.018 0.018 11.537-4.291 0.017z" fill="#E36247"/>
<path d="m116.81 97.099h-3.894v10.62h3.894v-10.62z" fill="#FA9C70"/>
<path d="m121.1 97.099h-3.895v10.62h3.895v-10.62z" fill="#FA9C70"/>
<path d="m121.19 103.78h-8.384v0.179h8.384v-0.179z" fill="#E36247"/>
<path d="m121.19 99.022h-8.384v0.1797h8.384v-0.1797z" fill="#E36247"/>
<path d="m128.74 42.433-53.588 0.0359v-0.5391h-0.595v-1.0782l54.778-0.0359v1.0782h-0.595v0.5391z" fill="#E36247"/>
<path d="m128.73 20.617-53.588 0.036v-0.5391h-0.595v-1.0783l54.796-0.0359v1.0782h-0.613v0.5391z" fill="#E36247"/>
<path d="m175.69 112.93c-0.726-1.272-2.14-2.628-4.96-2.894 0 0-0.719-8.387-9.501-8.09s-8.736 5.53-8.736 5.53-4.479-13.582-14.285-12.767c-9.806 0.8151-10.746 9.7506-10.746 9.7506s-12.687-0.046-13.681 8.478h61.909v-8e-3z" fill="#EBE7E9"/>
<path d="m140.11 113h-2.109v-38.559c0-9.0661 7.423-16.441 16.548-16.441h30.452v2.0958h-30.452c-7.958 0-14.439 6.4305-14.439 14.346v38.559z" fill="#E1D7DB"/>
</g>
<defs>
<clipPath id="a">
<rect width="210" height="112" rx="6" fill="#fff"/>
</clipPath>
</defs>
</svg>