<svg width="52" height="52" viewBox="0 0 52 52" fill="none" xmlns="http://www.w3.org/2000/svg"><g clip-path="url(#clip0_962_6347)"><path d="M17.0582 15.8754L11.7701 15.8828L11.7556 6.97164C11.7553 6.7223 11.9571 6.51999 12.2063 6.51958L16.5916 6.51349C16.841 6.51318 17.0433 6.71499 17.0437 6.96422L17.0582 15.8754Z" fill="#FFB125"/><path d="M17.0438 6.96422C17.0435 6.71489 16.8411 6.51308 16.5917 6.51349L13.9772 6.51715C14.2091 6.53583 14.3922 6.72758 14.3925 6.96422L14.407 15.8753L11.7703 15.879V15.8826L17.0583 15.8752L17.0438 6.96422Z" fill="#FF901D"/><path d="M25.8028 6.35187L11.6377 19.6959L11.666 39.9819C11.6667 40.517 12.1012 40.9501 12.6364 40.9494L39.0658 40.9126C39.6009 40.9119 40.0341 40.4774 40.0334 39.9422L40.005 19.6563L25.8028 6.35187Z" fill="#E1EFFB"/><path d="M40.005 19.6562L25.8028 6.35187L23.467 8.55222L35.3204 19.6561L35.3487 39.9421C35.3494 40.4773 34.9163 40.9117 34.3812 40.9125H39.0657C39.6009 40.9117 40.0341 40.4773 40.0333 39.9421L40.005 19.6562Z" fill="#CCDFED"/><path d="M45.0017 24.1264C44.5236 24.1271 44.0442 23.9527 43.6677 23.6L25.8029 6.86479L7.98513 23.6498C7.20208 24.3876 5.96911 24.3507 5.23166 23.5677C4.49391 22.7846 4.53068 21.5518 5.31383 20.8142L24.4635 2.77436C25.2122 2.06901 26.3803 2.06738 27.131 2.7706L46.3311 20.7568C47.1162 21.4922 47.1565 22.725 46.4208 23.5101C46.0381 23.9187 45.5206 24.1255 45.0017 24.1264Z" fill="#F5821F"/><path d="M46.4209 21.1672C46.0381 21.5757 45.5206 21.7827 45.0016 21.7834C44.5235 21.784 44.0441 21.6097 43.6676 21.257L25.803 4.52185L7.98515 21.3068C7.20211 22.0445 5.96914 22.0077 5.23169 21.2246C5.18233 21.1723 5.13714 21.1177 5.09468 21.0616C4.53345 21.8056 4.57103 22.8665 5.23169 23.5676C5.96914 24.3506 7.20211 24.3875 7.98515 23.6497L25.803 6.8648L43.6676 23.6C44.0441 23.9527 44.5236 24.127 45.0016 24.1264C45.5206 24.1256 46.0381 23.9187 46.4209 23.5102C47.0782 22.8086 47.1141 21.7504 46.5543 21.0082C46.5131 21.0628 46.4688 21.116 46.4209 21.1672Z" fill="#F47118"/><path d="M29.467 23.0756L22.1852 23.0857C21.8435 23.0862 21.567 23.3636 21.5674 23.7053L21.5915 40.937L30.1106 40.9251L30.0865 23.6934C30.086 23.3516 29.8087 23.0751 29.467 23.0756Z" fill="#2D5871"/><path d="M30.0864 23.6932C30.0859 23.3516 29.8085 23.0749 29.4669 23.0754L25.3528 23.0812C25.6037 23.1597 25.7862 23.3938 25.7866 23.6708L25.8106 40.9309L30.1105 40.9249L30.0864 23.6932Z" fill="#1D4859"/><path d="M48.0477 32.227L37.3148 39.41L34.1161 39.2305L33.9909 37.9715C33.8045 36.0973 32.3615 34.5932 30.4967 34.3293L21.9265 33.3426C19.9495 33.0629 18.046 32.4004 16.3226 31.3922C13.9696 30.0157 11.2927 29.2902 8.56664 29.2902H2.38757V43.3946L18.7184 49.5789C19.3356 49.7531 19.9838 49.8052 20.6172 49.7052C20.621 49.7046 20.6248 49.704 20.6286 49.7034L37.07 47.3334C38.3365 47.1312 39.5273 46.5977 40.5212 45.787L51.1475 36.2299C52.1012 35.3831 52.278 33.9599 51.5605 32.9054C50.7754 31.7519 49.206 31.4487 48.0477 32.227Z" fill="#FED9A8"/><path d="M51.7005 33.1398L41.1973 41.9811C40.2033 42.7917 38.5509 43.3252 37.2843 43.5274L20.6286 44.7181C20.6248 44.7187 20.621 44.7193 20.6172 44.7199C19.9838 44.82 19.3355 44.7678 18.7184 44.5935L2.38745 38.4093V43.3947L18.7183 49.5789C19.0268 49.6661 19.3432 49.7227 19.6616 49.745C19.7412 49.7506 19.821 49.754 19.9007 49.7553C20.14 49.7589 20.3796 49.7429 20.6171 49.7053C20.6209 49.7047 20.6247 49.7041 20.6285 49.7035L37.0698 47.3335C37.4656 47.2703 37.8541 47.1748 38.2313 47.0485C38.3068 47.0232 38.3818 46.9968 38.4564 46.9691C38.8291 46.8307 39.1899 46.6618 39.5353 46.4642C39.6043 46.4247 39.6728 46.3841 39.7406 46.3422C40.0118 46.1751 40.2726 45.9897 40.5211 45.787L51.1474 36.2299C52.0322 35.4443 52.2469 34.163 51.7005 33.1398Z" fill="#F4C892"/><path d="M35.3615 39.3026L17.2699 38.5787C17.1836 38.5752 17.0995 38.5499 17.0257 38.5049L16.0647 37.9195C15.5974 37.6348 15.8479 36.914 16.3911 36.9805L35.3615 39.3026Z" fill="#F4C892"/><path d="M4.46997 48.1855H2.02516C0.906649 48.1855 0 47.2788 0 46.1604V28.0681C0 26.9496 0.90675 26.043 2.02516 26.043H4.46997C5.58848 26.043 6.49513 26.9497 6.49513 28.0681V46.1604C6.49513 47.2789 5.58848 48.1855 4.46997 48.1855Z" fill="#2D5871"/><path d="M4.46997 26.043H2.02515C1.88764 26.043 1.75358 26.057 1.62378 26.0831C2.54993 26.2694 3.24756 27.0871 3.24756 28.0681V46.1604C3.24756 47.1414 2.54993 47.9591 1.62378 48.1454C1.75358 48.1715 1.88774 48.1855 2.02515 48.1855H4.46997C5.58847 48.1855 6.49512 47.2788 6.49512 46.1604V28.0681C6.49512 26.9497 5.58847 26.043 4.46997 26.043Z" fill="#1D4859"/></g><defs><clipPath id="clip0_962_6347"><rect width="52" height="52" fill="white"/></clipPath></defs></svg>